<?xml version="1.0" encoding="utf-8" standalone="no"?>
<!DOCTYPE svg PUBLIC "-//W3C//DTD SVG 1.1//EN"
  "http://www.w3.org/Graphics/SVG/1.1/DTD/svg11.dtd">
<svg xmlns:xlink="http://www.w3.org/1999/xlink" width="720pt" height="432pt" viewBox="0 0 720 432" xmlns="http://www.w3.org/2000/svg" version="1.1">
 <metadata>
  <rdf:RDF xmlns:dc="http://purl.org/dc/elements/1.1/" xmlns:cc="http://creativecommons.org/ns#" xmlns:rdf="http://www.w3.org/1999/02/22-rdf-syntax-ns#">
   <cc:Work>
    <dc:type rdf:resource="http://purl.org/dc/dcmitype/StillImage"/>
    <dc:date>2025-02-26T15:49:24.606981</dc:date>
    <dc:format>image/svg+xml</dc:format>
    <dc:creator>
     <cc:Agent>
      <dc:title>Matplotlib v3.10.0, https://matplotlib.org/</dc:title>
     </cc:Agent>
    </dc:creator>
   </cc:Work>
  </rdf:RDF>
 </metadata>
 <defs>
  <style type="text/css">*{stroke-linejoin: round; stroke-linecap: butt}</style>
 </defs>
 <g id="figure_1">
  <g id="patch_1">
   <path d="M 0 432 
L 720 432 
L 720 0 
L 0 0 
z
" style="fill: #ffffff"/>
  </g>
  <g id="axes_1">
   <g id="patch_2">
    <path d="M 90 384.48 
L 648 384.48 
L 648 51.84 
L 90 51.84 
z
" style="fill: #ffffff"/>
   </g>
   <g id="matplotlib.axis_1">
    <g id="xtick_1">
     <g id="line2d_1">
      <defs>
       <path id="mb6df6cdb56" d="M 0 0 
L 0 3.5 
" style="stroke: #000000; stroke-width: 0.8"/>
      </defs>
      <g>
       <use xlink:href="#mb6df6cdb56" x="145.8" y="384.48" style="stroke: #000000; stroke-width: 0.8"/>
      </g>
     </g>
     <g id="text_1">
      <!-- Asia -->
      <g transform="translate(131.130625 402.117813) scale(0.14 -0.14)">
       <defs>
        <path id="DejaVuSans-41" d="M 2188 4044 
L 1331 1722 
L 3047 1722 
L 2188 4044 
z
M 1831 4666 
L 2547 4666 
L 4325 0 
L 3669 0 
L 3244 1197 
L 1141 1197 
L 716 0 
L 50 0 
L 1831 4666 
z
" transform="scale(0.015625)"/>
        <path id="DejaVuSans-73" d="M 2834 3397 
L 2834 2853 
Q 2591 2978 2328 3040 
Q 2066 3103 1784 3103 
Q 1356 3103 1142 2972 
Q 928 2841 928 2578 
Q 928 2378 1081 2264 
Q 1234 2150 1697 2047 
L 1894 2003 
Q 2506 1872 2764 1633 
Q 3022 1394 3022 966 
Q 3022 478 2636 193 
Q 2250 -91 1575 -91 
Q 1294 -91 989 -36 
Q 684 19 347 128 
L 347 722 
Q 666 556 975 473 
Q 1284 391 1588 391 
Q 1994 391 2212 530 
Q 2431 669 2431 922 
Q 2431 1156 2273 1281 
Q 2116 1406 1581 1522 
L 1381 1569 
Q 847 1681 609 1914 
Q 372 2147 372 2553 
Q 372 3047 722 3315 
Q 1072 3584 1716 3584 
Q 2034 3584 2315 3537 
Q 2597 3491 2834 3397 
z
" transform="scale(0.015625)"/>
        <path id="DejaVuSans-69" d="M 603 3500 
L 1178 3500 
L 1178 0 
L 603 0 
L 603 3500 
z
M 603 4863 
L 1178 4863 
L 1178 4134 
L 603 4134 
L 603 4863 
z
" transform="scale(0.015625)"/>
        <path id="DejaVuSans-61" d="M 2194 1759 
Q 1497 1759 1228 1600 
Q 959 1441 959 1056 
Q 959 750 1161 570 
Q 1363 391 1709 391 
Q 2188 391 2477 730 
Q 2766 1069 2766 1631 
L 2766 1759 
L 2194 1759 
z
M 3341 1997 
L 3341 0 
L 2766 0 
L 2766 531 
Q 2569 213 2275 61 
Q 1981 -91 1556 -91 
Q 1019 -91 701 211 
Q 384 513 384 1019 
Q 384 1609 779 1909 
Q 1175 2209 1959 2209 
L 2766 2209 
L 2766 2266 
Q 2766 2663 2505 2880 
Q 2244 3097 1772 3097 
Q 1472 3097 1187 3025 
Q 903 2953 641 2809 
L 641 3341 
Q 956 3463 1253 3523 
Q 1550 3584 1831 3584 
Q 2591 3584 2966 3190 
Q 3341 2797 3341 1997 
z
" transform="scale(0.015625)"/>
       </defs>
       <use xlink:href="#DejaVuSans-41"/>
       <use xlink:href="#DejaVuSans-73" transform="translate(68.408203 0)"/>
       <use xlink:href="#DejaVuSans-69" transform="translate(120.507812 0)"/>
       <use xlink:href="#DejaVuSans-61" transform="translate(148.291016 0)"/>
      </g>
     </g>
    </g>
    <g id="xtick_2">
     <g id="line2d_2">
      <g>
       <use xlink:href="#mb6df6cdb56" x="257.4" y="384.48" style="stroke: #000000; stroke-width: 0.8"/>
      </g>
     </g>
     <g id="text_2">
      <!-- Europe -->
      <g transform="translate(232.78625 402.117813) scale(0.14 -0.14)">
       <defs>
        <path id="DejaVuSans-45" d="M 628 4666 
L 3578 4666 
L 3578 4134 
L 1259 4134 
L 1259 2753 
L 3481 2753 
L 3481 2222 
L 1259 2222 
L 1259 531 
L 3634 531 
L 3634 0 
L 628 0 
L 628 4666 
z
" transform="scale(0.015625)"/>
        <path id="DejaVuSans-75" d="M 544 1381 
L 544 3500 
L 1119 3500 
L 1119 1403 
Q 1119 906 1312 657 
Q 1506 409 1894 409 
Q 2359 409 2629 706 
Q 2900 1003 2900 1516 
L 2900 3500 
L 3475 3500 
L 3475 0 
L 2900 0 
L 2900 538 
Q 2691 219 2414 64 
Q 2138 -91 1772 -91 
Q 1169 -91 856 284 
Q 544 659 544 1381 
z
M 1991 3584 
L 1991 3584 
z
" transform="scale(0.015625)"/>
        <path id="DejaVuSans-72" d="M 2631 2963 
Q 2534 3019 2420 3045 
Q 2306 3072 2169 3072 
Q 1681 3072 1420 2755 
Q 1159 2438 1159 1844 
L 1159 0 
L 581 0 
L 581 3500 
L 1159 3500 
L 1159 2956 
Q 1341 3275 1631 3429 
Q 1922 3584 2338 3584 
Q 2397 3584 2469 3576 
Q 2541 3569 2628 3553 
L 2631 2963 
z
" transform="scale(0.015625)"/>
        <path id="DejaVuSans-6f" d="M 1959 3097 
Q 1497 3097 1228 2736 
Q 959 2375 959 1747 
Q 959 1119 1226 758 
Q 1494 397 1959 397 
Q 2419 397 2687 759 
Q 2956 1122 2956 1747 
Q 2956 2369 2687 2733 
Q 2419 3097 1959 3097 
z
M 1959 3584 
Q 2709 3584 3137 3096 
Q 3566 2609 3566 1747 
Q 3566 888 3137 398 
Q 2709 -91 1959 -91 
Q 1206 -91 779 398 
Q 353 888 353 1747 
Q 353 2609 779 3096 
Q 1206 3584 1959 3584 
z
" transform="scale(0.015625)"/>
        <path id="DejaVuSans-70" d="M 1159 525 
L 1159 -1331 
L 581 -1331 
L 581 3500 
L 1159 3500 
L 1159 2969 
Q 1341 3281 1617 3432 
Q 1894 3584 2278 3584 
Q 2916 3584 3314 3078 
Q 3713 2572 3713 1747 
Q 3713 922 3314 415 
Q 2916 -91 2278 -91 
Q 1894 -91 1617 61 
Q 1341 213 1159 525 
z
M 3116 1747 
Q 3116 2381 2855 2742 
Q 2594 3103 2138 3103 
Q 1681 3103 1420 2742 
Q 1159 2381 1159 1747 
Q 1159 1113 1420 752 
Q 1681 391 2138 391 
Q 2594 391 2855 752 
Q 3116 1113 3116 1747 
z
" transform="scale(0.015625)"/>
        <path id="DejaVuSans-65" d="M 3597 1894 
L 3597 1613 
L 953 1613 
Q 991 1019 1311 708 
Q 1631 397 2203 397 
Q 2534 397 2845 478 
Q 3156 559 3463 722 
L 3463 178 
Q 3153 47 2828 -22 
Q 2503 -91 2169 -91 
Q 1331 -91 842 396 
Q 353 884 353 1716 
Q 353 2575 817 3079 
Q 1281 3584 2069 3584 
Q 2775 3584 3186 3129 
Q 3597 2675 3597 1894 
z
M 3022 2063 
Q 3016 2534 2758 2815 
Q 2500 3097 2075 3097 
Q 1594 3097 1305 2825 
Q 1016 2553 972 2059 
L 3022 2063 
z
" transform="scale(0.015625)"/>
       </defs>
       <use xlink:href="#DejaVuSans-45"/>
       <use xlink:href="#DejaVuSans-75" transform="translate(63.183594 0)"/>
       <use xlink:href="#DejaVuSans-72" transform="translate(126.5625 0)"/>
       <use xlink:href="#DejaVuSans-6f" transform="translate(165.425781 0)"/>
       <use xlink:href="#DejaVuSans-70" transform="translate(226.607422 0)"/>
       <use xlink:href="#DejaVuSans-65" transform="translate(290.083984 0)"/>
      </g>
     </g>
    </g>
    <g id="xtick_3">
     <g id="line2d_3">
      <g>
       <use xlink:href="#mb6df6cdb56" x="369" y="384.48" style="stroke: #000000; stroke-width: 0.8"/>
      </g>
     </g>
     <g id="text_3">
      <!-- Africa -->
      <g transform="translate(349.040156 402.117813) scale(0.14 -0.14)">
       <defs>
        <path id="DejaVuSans-66" d="M 2375 4863 
L 2375 4384 
L 1825 4384 
Q 1516 4384 1395 4259 
Q 1275 4134 1275 3809 
L 1275 3500 
L 2222 3500 
L 2222 3053 
L 1275 3053 
L 1275 0 
L 697 0 
L 697 3053 
L 147 3053 
L 147 3500 
L 697 3500 
L 697 3744 
Q 697 4328 969 4595 
Q 1241 4863 1831 4863 
L 2375 4863 
z
" transform="scale(0.015625)"/>
        <path id="DejaVuSans-63" d="M 3122 3366 
L 3122 2828 
Q 2878 2963 2633 3030 
Q 2388 3097 2138 3097 
Q 1578 3097 1268 2742 
Q 959 2388 959 1747 
Q 959 1106 1268 751 
Q 1578 397 2138 397 
Q 2388 397 2633 464 
Q 2878 531 3122 666 
L 3122 134 
Q 2881 22 2623 -34 
Q 2366 -91 2075 -91 
Q 1284 -91 818 406 
Q 353 903 353 1747 
Q 353 2603 823 3093 
Q 1294 3584 2113 3584 
Q 2378 3584 2631 3529 
Q 2884 3475 3122 3366 
z
" transform="scale(0.015625)"/>
       </defs>
       <use xlink:href="#DejaVuSans-41"/>
       <use xlink:href="#DejaVuSans-66" transform="translate(64.783203 0)"/>
       <use xlink:href="#DejaVuSans-72" transform="translate(99.988281 0)"/>
       <use xlink:href="#DejaVuSans-69" transform="translate(141.101562 0)"/>
       <use xlink:href="#DejaVuSans-63" transform="translate(168.884766 0)"/>
       <use xlink:href="#DejaVuSans-61" transform="translate(223.865234 0)"/>
      </g>
     </g>
    </g>
    <g id="xtick_4">
     <g id="line2d_4">
      <g>
       <use xlink:href="#mb6df6cdb56" x="480.6" y="384.48" style="stroke: #000000; stroke-width: 0.8"/>
      </g>
     </g>
     <g id="text_4">
      <!-- Americas -->
      <g transform="translate(448.078438 402.117813) scale(0.14 -0.14)">
       <defs>
        <path id="DejaVuSans-6d" d="M 3328 2828 
Q 3544 3216 3844 3400 
Q 4144 3584 4550 3584 
Q 5097 3584 5394 3201 
Q 5691 2819 5691 2113 
L 5691 0 
L 5113 0 
L 5113 2094 
Q 5113 2597 4934 2840 
Q 4756 3084 4391 3084 
Q 3944 3084 3684 2787 
Q 3425 2491 3425 1978 
L 3425 0 
L 2847 0 
L 2847 2094 
Q 2847 2600 2669 2842 
Q 2491 3084 2119 3084 
Q 1678 3084 1418 2786 
Q 1159 2488 1159 1978 
L 1159 0 
L 581 0 
L 581 3500 
L 1159 3500 
L 1159 2956 
Q 1356 3278 1631 3431 
Q 1906 3584 2284 3584 
Q 2666 3584 2933 3390 
Q 3200 3197 3328 2828 
z
" transform="scale(0.015625)"/>
       </defs>
       <use xlink:href="#DejaVuSans-41"/>
       <use xlink:href="#DejaVuSans-6d" transform="translate(68.408203 0)"/>
       <use xlink:href="#DejaVuSans-65" transform="translate(165.820312 0)"/>
       <use xlink:href="#DejaVuSans-72" transform="translate(227.34375 0)"/>
       <use xlink:href="#DejaVuSans-69" transform="translate(268.457031 0)"/>
       <use xlink:href="#DejaVuSans-63" transform="translate(296.240234 0)"/>
       <use xlink:href="#DejaVuSans-61" transform="translate(351.220703 0)"/>
       <use xlink:href="#DejaVuSans-73" transform="translate(412.5 0)"/>
      </g>
     </g>
    </g>
    <g id="xtick_5">
     <g id="line2d_5">
      <g>
       <use xlink:href="#mb6df6cdb56" x="592.2" y="384.48" style="stroke: #000000; stroke-width: 0.8"/>
      </g>
     </g>
     <g id="text_5">
      <!-- Oceania -->
      <g transform="translate(563.573281 402.117813) scale(0.14 -0.14)">
       <defs>
        <path id="DejaVuSans-4f" d="M 2522 4238 
Q 1834 4238 1429 3725 
Q 1025 3213 1025 2328 
Q 1025 1447 1429 934 
Q 1834 422 2522 422 
Q 3209 422 3611 934 
Q 4013 1447 4013 2328 
Q 4013 3213 3611 3725 
Q 3209 4238 2522 4238 
z
M 2522 4750 
Q 3503 4750 4090 4092 
Q 4678 3434 4678 2328 
Q 4678 1225 4090 567 
Q 3503 -91 2522 -91 
Q 1538 -91 948 565 
Q 359 1222 359 2328 
Q 359 3434 948 4092 
Q 1538 4750 2522 4750 
z
" transform="scale(0.015625)"/>
        <path id="DejaVuSans-6e" d="M 3513 2113 
L 3513 0 
L 2938 0 
L 2938 2094 
Q 2938 2591 2744 2837 
Q 2550 3084 2163 3084 
Q 1697 3084 1428 2787 
Q 1159 2491 1159 1978 
L 1159 0 
L 581 0 
L 581 3500 
L 1159 3500 
L 1159 2956 
Q 1366 3272 1645 3428 
Q 1925 3584 2291 3584 
Q 2894 3584 3203 3211 
Q 3513 2838 3513 2113 
z
" transform="scale(0.015625)"/>
       </defs>
       <use xlink:href="#DejaVuSans-4f"/>
       <use xlink:href="#DejaVuSans-63" transform="translate(78.710938 0)"/>
       <use xlink:href="#DejaVuSans-65" transform="translate(133.691406 0)"/>
       <use xlink:href="#DejaVuSans-61" transform="translate(195.214844 0)"/>
       <use xlink:href="#DejaVuSans-6e" transform="translate(256.494141 0)"/>
       <use xlink:href="#DejaVuSans-69" transform="translate(319.873047 0)"/>
       <use xlink:href="#DejaVuSans-61" transform="translate(347.65625 0)"/>
      </g>
     </g>
    </g>
    <g id="text_6">
     <!-- Continent -->
     <g transform="translate(325.002656 422.706563) scale(0.18 -0.18)">
      <defs>
       <path id="DejaVuSans-43" d="M 4122 4306 
L 4122 3641 
Q 3803 3938 3442 4084 
Q 3081 4231 2675 4231 
Q 1875 4231 1450 3742 
Q 1025 3253 1025 2328 
Q 1025 1406 1450 917 
Q 1875 428 2675 428 
Q 3081 428 3442 575 
Q 3803 722 4122 1019 
L 4122 359 
Q 3791 134 3420 21 
Q 3050 -91 2638 -91 
Q 1578 -91 968 557 
Q 359 1206 359 2328 
Q 359 3453 968 4101 
Q 1578 4750 2638 4750 
Q 3056 4750 3426 4639 
Q 3797 4528 4122 4306 
z
" transform="scale(0.015625)"/>
       <path id="DejaVuSans-74" d="M 1172 4494 
L 1172 3500 
L 2356 3500 
L 2356 3053 
L 1172 3053 
L 1172 1153 
Q 1172 725 1289 603 
Q 1406 481 1766 481 
L 2356 481 
L 2356 0 
L 1766 0 
Q 1100 0 847 248 
Q 594 497 594 1153 
L 594 3053 
L 172 3053 
L 172 3500 
L 594 3500 
L 594 4494 
L 1172 4494 
z
" transform="scale(0.015625)"/>
      </defs>
      <use xlink:href="#DejaVuSans-43"/>
      <use xlink:href="#DejaVuSans-6f" transform="translate(69.824219 0)"/>
      <use xlink:href="#DejaVuSans-6e" transform="translate(131.005859 0)"/>
      <use xlink:href="#DejaVuSans-74" transform="translate(194.384766 0)"/>
      <use xlink:href="#DejaVuSans-69" transform="translate(233.59375 0)"/>
      <use xlink:href="#DejaVuSans-6e" transform="translate(261.376953 0)"/>
      <use xlink:href="#DejaVuSans-65" transform="translate(324.755859 0)"/>
      <use xlink:href="#DejaVuSans-6e" transform="translate(386.279297 0)"/>
      <use xlink:href="#DejaVuSans-74" transform="translate(449.658203 0)"/>
     </g>
    </g>
   </g>
   <g id="matplotlib.axis_2">
    <g id="ytick_1">
     <g id="line2d_6">
      <defs>
       <path id="m4d0bce275e" d="M 0 0 
L -3.5 0 
" style="stroke: #000000; stroke-width: 0.8"/>
      </defs>
      <g>
       <use xlink:href="#m4d0bce275e" x="90" y="299.47453" style="stroke: #000000; stroke-width: 0.8"/>
      </g>
     </g>
     <g id="text_7">
      <!-- $\mathdefault{10^{3}}$ -->
      <g transform="translate(58.36 304.793436) scale(0.14 -0.14)">
       <defs>
        <path id="DejaVuSans-31" d="M 794 531 
L 1825 531 
L 1825 4091 
L 703 3866 
L 703 4441 
L 1819 4666 
L 2450 4666 
L 2450 531 
L 3481 531 
L 3481 0 
L 794 0 
L 794 531 
z
" transform="scale(0.015625)"/>
        <path id="DejaVuSans-30" d="M 2034 4250 
Q 1547 4250 1301 3770 
Q 1056 3291 1056 2328 
Q 1056 1369 1301 889 
Q 1547 409 2034 409 
Q 2525 409 2770 889 
Q 3016 1369 3016 2328 
Q 3016 3291 2770 3770 
Q 2525 4250 2034 4250 
z
M 2034 4750 
Q 2819 4750 3233 4129 
Q 3647 3509 3647 2328 
Q 3647 1150 3233 529 
Q 2819 -91 2034 -91 
Q 1250 -91 836 529 
Q 422 1150 422 2328 
Q 422 3509 836 4129 
Q 1250 4750 2034 4750 
z
" transform="scale(0.015625)"/>
        <path id="DejaVuSans-33" d="M 2597 2516 
Q 3050 2419 3304 2112 
Q 3559 1806 3559 1356 
Q 3559 666 3084 287 
Q 2609 -91 1734 -91 
Q 1441 -91 1130 -33 
Q 819 25 488 141 
L 488 750 
Q 750 597 1062 519 
Q 1375 441 1716 441 
Q 2309 441 2620 675 
Q 2931 909 2931 1356 
Q 2931 1769 2642 2001 
Q 2353 2234 1838 2234 
L 1294 2234 
L 1294 2753 
L 1863 2753 
Q 2328 2753 2575 2939 
Q 2822 3125 2822 3475 
Q 2822 3834 2567 4026 
Q 2313 4219 1838 4219 
Q 1578 4219 1281 4162 
Q 984 4106 628 3988 
L 628 4550 
Q 988 4650 1302 4700 
Q 1616 4750 1894 4750 
Q 2613 4750 3031 4423 
Q 3450 4097 3450 3541 
Q 3450 3153 3228 2886 
Q 3006 2619 2597 2516 
z
" transform="scale(0.015625)"/>
       </defs>
       <use xlink:href="#DejaVuSans-31" transform="translate(0 0.765625)"/>
       <use xlink:href="#DejaVuSans-30" transform="translate(63.623047 0.765625)"/>
       <use xlink:href="#DejaVuSans-33" transform="translate(128.203125 39.046875) scale(0.7)"/>
      </g>
     </g>
    </g>
    <g id="ytick_2">
     <g id="line2d_7">
      <g>
       <use xlink:href="#m4d0bce275e" x="90" y="186.333418" style="stroke: #000000; stroke-width: 0.8"/>
      </g>
     </g>
     <g id="text_8">
      <!-- $\mathdefault{10^{4}}$ -->
      <g transform="translate(58.36 191.652324) scale(0.14 -0.14)">
       <defs>
        <path id="DejaVuSans-34" d="M 2419 4116 
L 825 1625 
L 2419 1625 
L 2419 4116 
z
M 2253 4666 
L 3047 4666 
L 3047 1625 
L 3713 1625 
L 3713 1100 
L 3047 1100 
L 3047 0 
L 2419 0 
L 2419 1100 
L 313 1100 
L 313 1709 
L 2253 4666 
z
" transform="scale(0.015625)"/>
       </defs>
       <use xlink:href="#DejaVuSans-31" transform="translate(0 0.684375)"/>
       <use xlink:href="#DejaVuSans-30" transform="translate(63.623047 0.684375)"/>
       <use xlink:href="#DejaVuSans-34" transform="translate(128.203125 38.965625) scale(0.7)"/>
      </g>
     </g>
    </g>
    <g id="ytick_3">
     <g id="line2d_8">
      <g>
       <use xlink:href="#m4d0bce275e" x="90" y="73.192307" style="stroke: #000000; stroke-width: 0.8"/>
      </g>
     </g>
     <g id="text_9">
      <!-- $\mathdefault{10^{5}}$ -->
      <g transform="translate(58.36 78.511213) scale(0.14 -0.14)">
       <defs>
        <path id="DejaVuSans-35" d="M 691 4666 
L 3169 4666 
L 3169 4134 
L 1269 4134 
L 1269 2991 
Q 1406 3038 1543 3061 
Q 1681 3084 1819 3084 
Q 2600 3084 3056 2656 
Q 3513 2228 3513 1497 
Q 3513 744 3044 326 
Q 2575 -91 1722 -91 
Q 1428 -91 1123 -41 
Q 819 9 494 109 
L 494 744 
Q 775 591 1075 516 
Q 1375 441 1709 441 
Q 2250 441 2565 725 
Q 2881 1009 2881 1497 
Q 2881 1984 2565 2268 
Q 2250 2553 1709 2553 
Q 1456 2553 1204 2497 
Q 953 2441 691 2322 
L 691 4666 
z
" transform="scale(0.015625)"/>
       </defs>
       <use xlink:href="#DejaVuSans-31" transform="translate(0 0.684375)"/>
       <use xlink:href="#DejaVuSans-30" transform="translate(63.623047 0.684375)"/>
       <use xlink:href="#DejaVuSans-35" transform="translate(128.203125 38.965625) scale(0.7)"/>
      </g>
     </g>
    </g>
    <g id="ytick_4">
     <g id="line2d_9">
      <defs>
       <path id="m56dda24ccd" d="M 0 0 
L -2 0 
" style="stroke: #000000; stroke-width: 0.6"/>
      </defs>
      <g>
       <use xlink:href="#m56dda24ccd" x="90" y="378.556773" style="stroke: #000000; stroke-width: 0.6"/>
      </g>
     </g>
    </g>
    <g id="ytick_5">
     <g id="line2d_10">
      <g>
       <use xlink:href="#m56dda24ccd" x="90" y="358.633612" style="stroke: #000000; stroke-width: 0.6"/>
      </g>
     </g>
    </g>
    <g id="ytick_6">
     <g id="line2d_11">
      <g>
       <use xlink:href="#m56dda24ccd" x="90" y="344.497904" style="stroke: #000000; stroke-width: 0.6"/>
      </g>
     </g>
    </g>
    <g id="ytick_7">
     <g id="line2d_12">
      <g>
       <use xlink:href="#m56dda24ccd" x="90" y="333.533398" style="stroke: #000000; stroke-width: 0.6"/>
      </g>
     </g>
    </g>
    <g id="ytick_8">
     <g id="line2d_13">
      <g>
       <use xlink:href="#m56dda24ccd" x="90" y="324.574744" style="stroke: #000000; stroke-width: 0.6"/>
      </g>
     </g>
    </g>
    <g id="ytick_9">
     <g id="line2d_14">
      <g>
       <use xlink:href="#m56dda24ccd" x="90" y="317.00031" style="stroke: #000000; stroke-width: 0.6"/>
      </g>
     </g>
    </g>
    <g id="ytick_10">
     <g id="line2d_15">
      <g>
       <use xlink:href="#m56dda24ccd" x="90" y="310.439036" style="stroke: #000000; stroke-width: 0.6"/>
      </g>
     </g>
    </g>
    <g id="ytick_11">
     <g id="line2d_16">
      <g>
       <use xlink:href="#m56dda24ccd" x="90" y="304.651583" style="stroke: #000000; stroke-width: 0.6"/>
      </g>
     </g>
    </g>
    <g id="ytick_12">
     <g id="line2d_17">
      <g>
       <use xlink:href="#m56dda24ccd" x="90" y="265.415661" style="stroke: #000000; stroke-width: 0.6"/>
      </g>
     </g>
    </g>
    <g id="ytick_13">
     <g id="line2d_18">
      <g>
       <use xlink:href="#m56dda24ccd" x="90" y="245.492501" style="stroke: #000000; stroke-width: 0.6"/>
      </g>
     </g>
    </g>
    <g id="ytick_14">
     <g id="line2d_19">
      <g>
       <use xlink:href="#m56dda24ccd" x="90" y="231.356793" style="stroke: #000000; stroke-width: 0.6"/>
      </g>
     </g>
    </g>
    <g id="ytick_15">
     <g id="line2d_20">
      <g>
       <use xlink:href="#m56dda24ccd" x="90" y="220.392286" style="stroke: #000000; stroke-width: 0.6"/>
      </g>
     </g>
    </g>
    <g id="ytick_16">
     <g id="line2d_21">
      <g>
       <use xlink:href="#m56dda24ccd" x="90" y="211.433632" style="stroke: #000000; stroke-width: 0.6"/>
      </g>
     </g>
    </g>
    <g id="ytick_17">
     <g id="line2d_22">
      <g>
       <use xlink:href="#m56dda24ccd" x="90" y="203.859198" style="stroke: #000000; stroke-width: 0.6"/>
      </g>
     </g>
    </g>
    <g id="ytick_18">
     <g id="line2d_23">
      <g>
       <use xlink:href="#m56dda24ccd" x="90" y="197.297925" style="stroke: #000000; stroke-width: 0.6"/>
      </g>
     </g>
    </g>
    <g id="ytick_19">
     <g id="line2d_24">
      <g>
       <use xlink:href="#m56dda24ccd" x="90" y="191.510471" style="stroke: #000000; stroke-width: 0.6"/>
      </g>
     </g>
    </g>
    <g id="ytick_20">
     <g id="line2d_25">
      <g>
       <use xlink:href="#m56dda24ccd" x="90" y="152.27455" style="stroke: #000000; stroke-width: 0.6"/>
      </g>
     </g>
    </g>
    <g id="ytick_21">
     <g id="line2d_26">
      <g>
       <use xlink:href="#m56dda24ccd" x="90" y="132.351389" style="stroke: #000000; stroke-width: 0.6"/>
      </g>
     </g>
    </g>
    <g id="ytick_22">
     <g id="line2d_27">
      <g>
       <use xlink:href="#m56dda24ccd" x="90" y="118.215681" style="stroke: #000000; stroke-width: 0.6"/>
      </g>
     </g>
    </g>
    <g id="ytick_23">
     <g id="line2d_28">
      <g>
       <use xlink:href="#m56dda24ccd" x="90" y="107.251175" style="stroke: #000000; stroke-width: 0.6"/>
      </g>
     </g>
    </g>
    <g id="ytick_24">
     <g id="line2d_29">
      <g>
       <use xlink:href="#m56dda24ccd" x="90" y="98.292521" style="stroke: #000000; stroke-width: 0.6"/>
      </g>
     </g>
    </g>
    <g id="ytick_25">
     <g id="line2d_30">
      <g>
       <use xlink:href="#m56dda24ccd" x="90" y="90.718087" style="stroke: #000000; stroke-width: 0.6"/>
      </g>
     </g>
    </g>
    <g id="ytick_26">
     <g id="line2d_31">
      <g>
       <use xlink:href="#m56dda24ccd" x="90" y="84.156813" style="stroke: #000000; stroke-width: 0.6"/>
      </g>
     </g>
    </g>
    <g id="ytick_27">
     <g id="line2d_32">
      <g>
       <use xlink:href="#m56dda24ccd" x="90" y="78.36936" style="stroke: #000000; stroke-width: 0.6"/>
      </g>
     </g>
    </g>
    <g id="text_10">
     <!-- GDP per Capita (log scale) -->
     <g transform="translate(50.616562 336.874219) rotate(-90) scale(0.18 -0.18)">
      <defs>
       <path id="DejaVuSans-47" d="M 3809 666 
L 3809 1919 
L 2778 1919 
L 2778 2438 
L 4434 2438 
L 4434 434 
Q 4069 175 3628 42 
Q 3188 -91 2688 -91 
Q 1594 -91 976 548 
Q 359 1188 359 2328 
Q 359 3472 976 4111 
Q 1594 4750 2688 4750 
Q 3144 4750 3555 4637 
Q 3966 4525 4313 4306 
L 4313 3634 
Q 3963 3931 3569 4081 
Q 3175 4231 2741 4231 
Q 1884 4231 1454 3753 
Q 1025 3275 1025 2328 
Q 1025 1384 1454 906 
Q 1884 428 2741 428 
Q 3075 428 3337 486 
Q 3600 544 3809 666 
z
" transform="scale(0.015625)"/>
       <path id="DejaVuSans-44" d="M 1259 4147 
L 1259 519 
L 2022 519 
Q 2988 519 3436 956 
Q 3884 1394 3884 2338 
Q 3884 3275 3436 3711 
Q 2988 4147 2022 4147 
L 1259 4147 
z
M 628 4666 
L 1925 4666 
Q 3281 4666 3915 4102 
Q 4550 3538 4550 2338 
Q 4550 1131 3912 565 
Q 3275 0 1925 0 
L 628 0 
L 628 4666 
z
" transform="scale(0.015625)"/>
       <path id="DejaVuSans-50" d="M 1259 4147 
L 1259 2394 
L 2053 2394 
Q 2494 2394 2734 2622 
Q 2975 2850 2975 3272 
Q 2975 3691 2734 3919 
Q 2494 4147 2053 4147 
L 1259 4147 
z
M 628 4666 
L 2053 4666 
Q 2838 4666 3239 4311 
Q 3641 3956 3641 3272 
Q 3641 2581 3239 2228 
Q 2838 1875 2053 1875 
L 1259 1875 
L 1259 0 
L 628 0 
L 628 4666 
z
" transform="scale(0.015625)"/>
       <path id="DejaVuSans-20" transform="scale(0.015625)"/>
       <path id="DejaVuSans-28" d="M 1984 4856 
Q 1566 4138 1362 3434 
Q 1159 2731 1159 2009 
Q 1159 1288 1364 580 
Q 1569 -128 1984 -844 
L 1484 -844 
Q 1016 -109 783 600 
Q 550 1309 550 2009 
Q 550 2706 781 3412 
Q 1013 4119 1484 4856 
L 1984 4856 
z
" transform="scale(0.015625)"/>
       <path id="DejaVuSans-6c" d="M 603 4863 
L 1178 4863 
L 1178 0 
L 603 0 
L 603 4863 
z
" transform="scale(0.015625)"/>
       <path id="DejaVuSans-67" d="M 2906 1791 
Q 2906 2416 2648 2759 
Q 2391 3103 1925 3103 
Q 1463 3103 1205 2759 
Q 947 2416 947 1791 
Q 947 1169 1205 825 
Q 1463 481 1925 481 
Q 2391 481 2648 825 
Q 2906 1169 2906 1791 
z
M 3481 434 
Q 3481 -459 3084 -895 
Q 2688 -1331 1869 -1331 
Q 1566 -1331 1297 -1286 
Q 1028 -1241 775 -1147 
L 775 -588 
Q 1028 -725 1275 -790 
Q 1522 -856 1778 -856 
Q 2344 -856 2625 -561 
Q 2906 -266 2906 331 
L 2906 616 
Q 2728 306 2450 153 
Q 2172 0 1784 0 
Q 1141 0 747 490 
Q 353 981 353 1791 
Q 353 2603 747 3093 
Q 1141 3584 1784 3584 
Q 2172 3584 2450 3431 
Q 2728 3278 2906 2969 
L 2906 3500 
L 3481 3500 
L 3481 434 
z
" transform="scale(0.015625)"/>
       <path id="DejaVuSans-29" d="M 513 4856 
L 1013 4856 
Q 1481 4119 1714 3412 
Q 1947 2706 1947 2009 
Q 1947 1309 1714 600 
Q 1481 -109 1013 -844 
L 513 -844 
Q 928 -128 1133 580 
Q 1338 1288 1338 2009 
Q 1338 2731 1133 3434 
Q 928 4138 513 4856 
z
" transform="scale(0.015625)"/>
      </defs>
      <use xlink:href="#DejaVuSans-47"/>
      <use xlink:href="#DejaVuSans-44" transform="translate(77.490234 0)"/>
      <use xlink:href="#DejaVuSans-50" transform="translate(154.492188 0)"/>
      <use xlink:href="#DejaVuSans-20" transform="translate(214.794922 0)"/>
      <use xlink:href="#DejaVuSans-70" transform="translate(246.582031 0)"/>
      <use xlink:href="#DejaVuSans-65" transform="translate(310.058594 0)"/>
      <use xlink:href="#DejaVuSans-72" transform="translate(371.582031 0)"/>
      <use xlink:href="#DejaVuSans-20" transform="translate(412.695312 0)"/>
      <use xlink:href="#DejaVuSans-43" transform="translate(444.482422 0)"/>
      <use xlink:href="#DejaVuSans-61" transform="translate(514.306641 0)"/>
      <use xlink:href="#DejaVuSans-70" transform="translate(575.585938 0)"/>
      <use xlink:href="#DejaVuSans-69" transform="translate(639.0625 0)"/>
      <use xlink:href="#DejaVuSans-74" transform="translate(666.845703 0)"/>
      <use xlink:href="#DejaVuSans-61" transform="translate(706.054688 0)"/>
      <use xlink:href="#DejaVuSans-20" transform="translate(767.333984 0)"/>
      <use xlink:href="#DejaVuSans-28" transform="translate(799.121094 0)"/>
      <use xlink:href="#DejaVuSans-6c" transform="translate(838.134766 0)"/>
      <use xlink:href="#DejaVuSans-6f" transform="translate(865.917969 0)"/>
      <use xlink:href="#DejaVuSans-67" transform="translate(927.099609 0)"/>
      <use xlink:href="#DejaVuSans-20" transform="translate(990.576172 0)"/>
      <use xlink:href="#DejaVuSans-73" transform="translate(1022.363281 0)"/>
      <use xlink:href="#DejaVuSans-63" transform="translate(1074.462891 0)"/>
      <use xlink:href="#DejaVuSans-61" transform="translate(1129.443359 0)"/>
      <use xlink:href="#DejaVuSans-6c" transform="translate(1190.722656 0)"/>
      <use xlink:href="#DejaVuSans-65" transform="translate(1218.505859 0)"/>
      <use xlink:href="#DejaVuSans-29" transform="translate(1280.029297 0)"/>
     </g>
    </g>
   </g>
   <g id="patch_3">
    <path d="M 101.16 296.750974 
L 190.44 296.750974 
L 190.44 194.035125 
L 101.16 194.035125 
L 101.16 296.750974 
z
" clip-path="url(#p0514462d6b)" style="fill: #abc9ea; stroke: #6f6f6f; stroke-linejoin: miter"/>
   </g>
   <g id="line2d_33">
    <path d="M 145.8 296.750974 
L 145.8 353.801724 
" clip-path="url(#p0514462d6b)" style="fill: none; stroke: #6f6f6f"/>
   </g>
   <g id="line2d_34">
    <path d="M 145.8 194.035125 
L 145.8 152.830874 
" clip-path="url(#p0514462d6b)" style="fill: none; stroke: #6f6f6f"/>
   </g>
   <g id="line2d_35">
    <path d="M 123.48 353.801724 
L 168.12 353.801724 
" clip-path="url(#p0514462d6b)" style="fill: none; stroke: #6f6f6f; stroke-linecap: square"/>
   </g>
   <g id="line2d_36">
    <path d="M 123.48 152.830874 
L 168.12 152.830874 
" clip-path="url(#p0514462d6b)" style="fill: none; stroke: #6f6f6f; stroke-linecap: square"/>
   </g>
   <g id="line2d_37">
    <defs>
     <path id="m310beb31d1" d="M 0 3 
C 0.795609 3 1.55874 2.683901 2.12132 2.12132 
C 2.683901 1.55874 3 0.795609 3 0 
C 3 -0.795609 2.683901 -1.55874 2.12132 -2.12132 
C 1.55874 -2.683901 0.795609 -3 0 -3 
C -0.795609 -3 -1.55874 -2.683901 -2.12132 -2.12132 
C -2.683901 -1.55874 -3 -0.795609 -3 0 
C -3 0.795609 -2.683901 1.55874 -2.12132 2.12132 
C -1.55874 2.683901 -0.795609 3 0 3 
z
" style="stroke: #6f6f6f"/>
    </defs>
    <g clip-path="url(#p0514462d6b)">
     <use xlink:href="#m310beb31d1" x="145.8" y="151.562302" style="fill-opacity: 0; stroke: #6f6f6f"/>
     <use xlink:href="#m310beb31d1" x="145.8" y="144.552452" style="fill-opacity: 0; stroke: #6f6f6f"/>
     <use xlink:href="#m310beb31d1" x="145.8" y="132.686579" style="fill-opacity: 0; stroke: #6f6f6f"/>
     <use xlink:href="#m310beb31d1" x="145.8" y="152.18012" style="fill-opacity: 0; stroke: #6f6f6f"/>
     <use xlink:href="#m310beb31d1" x="145.8" y="141.78879" style="fill-opacity: 0; stroke: #6f6f6f"/>
     <use xlink:href="#m310beb31d1" x="145.8" y="135.083192" style="fill-opacity: 0; stroke: #6f6f6f"/>
     <use xlink:href="#m310beb31d1" x="145.8" y="132.010233" style="fill-opacity: 0; stroke: #6f6f6f"/>
     <use xlink:href="#m310beb31d1" x="145.8" y="118.554688" style="fill-opacity: 0; stroke: #6f6f6f"/>
     <use xlink:href="#m310beb31d1" x="145.8" y="150.119684" style="fill-opacity: 0; stroke: #6f6f6f"/>
     <use xlink:href="#m310beb31d1" x="145.8" y="147.80264" style="fill-opacity: 0; stroke: #6f6f6f"/>
     <use xlink:href="#m310beb31d1" x="145.8" y="140.292177" style="fill-opacity: 0; stroke: #6f6f6f"/>
     <use xlink:href="#m310beb31d1" x="145.8" y="146.75877" style="fill-opacity: 0; stroke: #6f6f6f"/>
     <use xlink:href="#m310beb31d1" x="145.8" y="137.848149" style="fill-opacity: 0; stroke: #6f6f6f"/>
     <use xlink:href="#m310beb31d1" x="145.8" y="134.328953" style="fill-opacity: 0; stroke: #6f6f6f"/>
     <use xlink:href="#m310beb31d1" x="145.8" y="134.691769" style="fill-opacity: 0; stroke: #6f6f6f"/>
     <use xlink:href="#m310beb31d1" x="145.8" y="129.71116" style="fill-opacity: 0; stroke: #6f6f6f"/>
     <use xlink:href="#m310beb31d1" x="145.8" y="144.668945" style="fill-opacity: 0; stroke: #6f6f6f"/>
     <use xlink:href="#m310beb31d1" x="145.8" y="69.237055" style="fill-opacity: 0; stroke: #6f6f6f"/>
     <use xlink:href="#m310beb31d1" x="145.8" y="66.96" style="fill-opacity: 0; stroke: #6f6f6f"/>
     <use xlink:href="#m310beb31d1" x="145.8" y="75.476304" style="fill-opacity: 0; stroke: #6f6f6f"/>
     <use xlink:href="#m310beb31d1" x="145.8" y="83.610221" style="fill-opacity: 0; stroke: #6f6f6f"/>
     <use xlink:href="#m310beb31d1" x="145.8" y="68.801264" style="fill-opacity: 0; stroke: #6f6f6f"/>
     <use xlink:href="#m310beb31d1" x="145.8" y="98.897765" style="fill-opacity: 0; stroke: #6f6f6f"/>
     <use xlink:href="#m310beb31d1" x="145.8" y="130.182226" style="fill-opacity: 0; stroke: #6f6f6f"/>
     <use xlink:href="#m310beb31d1" x="145.8" y="135.53407" style="fill-opacity: 0; stroke: #6f6f6f"/>
     <use xlink:href="#m310beb31d1" x="145.8" y="124.871219" style="fill-opacity: 0; stroke: #6f6f6f"/>
     <use xlink:href="#m310beb31d1" x="145.8" y="117.847776" style="fill-opacity: 0; stroke: #6f6f6f"/>
     <use xlink:href="#m310beb31d1" x="145.8" y="124.62262" style="fill-opacity: 0; stroke: #6f6f6f"/>
     <use xlink:href="#m310beb31d1" x="145.8" y="109.971618" style="fill-opacity: 0; stroke: #6f6f6f"/>
     <use xlink:href="#m310beb31d1" x="145.8" y="146.890152" style="fill-opacity: 0; stroke: #6f6f6f"/>
     <use xlink:href="#m310beb31d1" x="145.8" y="141.630615" style="fill-opacity: 0; stroke: #6f6f6f"/>
     <use xlink:href="#m310beb31d1" x="145.8" y="125.95945" style="fill-opacity: 0; stroke: #6f6f6f"/>
     <use xlink:href="#m310beb31d1" x="145.8" y="126.646737" style="fill-opacity: 0; stroke: #6f6f6f"/>
     <use xlink:href="#m310beb31d1" x="145.8" y="149.415446" style="fill-opacity: 0; stroke: #6f6f6f"/>
     <use xlink:href="#m310beb31d1" x="145.8" y="141.622328" style="fill-opacity: 0; stroke: #6f6f6f"/>
     <use xlink:href="#m310beb31d1" x="145.8" y="150.85389" style="fill-opacity: 0; stroke: #6f6f6f"/>
     <use xlink:href="#m310beb31d1" x="145.8" y="148.368373" style="fill-opacity: 0; stroke: #6f6f6f"/>
     <use xlink:href="#m310beb31d1" x="145.8" y="141.764408" style="fill-opacity: 0; stroke: #6f6f6f"/>
     <use xlink:href="#m310beb31d1" x="145.8" y="126.900706" style="fill-opacity: 0; stroke: #6f6f6f"/>
     <use xlink:href="#m310beb31d1" x="145.8" y="123.361208" style="fill-opacity: 0; stroke: #6f6f6f"/>
     <use xlink:href="#m310beb31d1" x="145.8" y="110.142059" style="fill-opacity: 0; stroke: #6f6f6f"/>
     <use xlink:href="#m310beb31d1" x="145.8" y="151.769036" style="fill-opacity: 0; stroke: #6f6f6f"/>
     <use xlink:href="#m310beb31d1" x="145.8" y="144.906734" style="fill-opacity: 0; stroke: #6f6f6f"/>
     <use xlink:href="#m310beb31d1" x="145.8" y="134.49687" style="fill-opacity: 0; stroke: #6f6f6f"/>
    </g>
   </g>
   <g id="patch_4">
    <path d="M 212.76 202.38576 
L 302.04 202.38576 
L 302.04 151.153881 
L 212.76 151.153881 
L 212.76 202.38576 
z
" clip-path="url(#p0514462d6b)" style="fill: #efb792; stroke: #6f6f6f; stroke-linejoin: miter"/>
   </g>
   <g id="line2d_38">
    <path d="M 257.4 202.38576 
L 257.4 300.792537 
" clip-path="url(#p0514462d6b)" style="fill: none; stroke: #6f6f6f"/>
   </g>
   <g id="line2d_39">
    <path d="M 257.4 151.153881 
L 257.4 121.378472 
" clip-path="url(#p0514462d6b)" style="fill: none; stroke: #6f6f6f"/>
   </g>
   <g id="line2d_40">
    <path d="M 235.08 300.792537 
L 279.72 300.792537 
" clip-path="url(#p0514462d6b)" style="fill: none; stroke: #6f6f6f; stroke-linecap: square"/>
   </g>
   <g id="line2d_41">
    <path d="M 235.08 121.378472 
L 279.72 121.378472 
" clip-path="url(#p0514462d6b)" style="fill: none; stroke: #6f6f6f; stroke-linecap: square"/>
   </g>
   <g id="line2d_42">
    <g clip-path="url(#p0514462d6b)">
     <use xlink:href="#m310beb31d1" x="257.4" y="117.392217" style="fill-opacity: 0; stroke: #6f6f6f"/>
     <use xlink:href="#m310beb31d1" x="257.4" y="116.664179" style="fill-opacity: 0; stroke: #6f6f6f"/>
     <use xlink:href="#m310beb31d1" x="257.4" y="112.774521" style="fill-opacity: 0; stroke: #6f6f6f"/>
     <use xlink:href="#m310beb31d1" x="257.4" y="107.88698" style="fill-opacity: 0; stroke: #6f6f6f"/>
    </g>
   </g>
   <g id="patch_5">
    <path d="M 324.36 312.878855 
L 413.64 312.878855 
L 413.64 256.921542 
L 324.36 256.921542 
L 324.36 312.878855 
z
" clip-path="url(#p0514462d6b)" style="fill: #98daa7; stroke: #6f6f6f; stroke-linejoin: miter"/>
   </g>
   <g id="line2d_43">
    <path d="M 369 312.878855 
L 369 369.36 
" clip-path="url(#p0514462d6b)" style="fill: none; stroke: #6f6f6f"/>
   </g>
   <g id="line2d_44">
    <path d="M 369 256.921542 
L 369 222.425837 
" clip-path="url(#p0514462d6b)" style="fill: none; stroke: #6f6f6f"/>
   </g>
   <g id="line2d_45">
    <path d="M 346.68 369.36 
L 391.32 369.36 
" clip-path="url(#p0514462d6b)" style="fill: none; stroke: #6f6f6f; stroke-linecap: square"/>
   </g>
   <g id="line2d_46">
    <path d="M 346.68 222.425837 
L 391.32 222.425837 
" clip-path="url(#p0514462d6b)" style="fill: none; stroke: #6f6f6f; stroke-linecap: square"/>
   </g>
   <g id="line2d_47">
    <g clip-path="url(#p0514462d6b)">
     <use xlink:href="#m310beb31d1" x="369" y="221.280631" style="fill-opacity: 0; stroke: #6f6f6f"/>
     <use xlink:href="#m310beb31d1" x="369" y="213.566241" style="fill-opacity: 0; stroke: #6f6f6f"/>
     <use xlink:href="#m310beb31d1" x="369" y="214.114969" style="fill-opacity: 0; stroke: #6f6f6f"/>
     <use xlink:href="#m310beb31d1" x="369" y="220.164657" style="fill-opacity: 0; stroke: #6f6f6f"/>
     <use xlink:href="#m310beb31d1" x="369" y="217.640156" style="fill-opacity: 0; stroke: #6f6f6f"/>
     <use xlink:href="#m310beb31d1" x="369" y="209.637608" style="fill-opacity: 0; stroke: #6f6f6f"/>
     <use xlink:href="#m310beb31d1" x="369" y="215.50601" style="fill-opacity: 0; stroke: #6f6f6f"/>
     <use xlink:href="#m310beb31d1" x="369" y="215.948296" style="fill-opacity: 0; stroke: #6f6f6f"/>
     <use xlink:href="#m310beb31d1" x="369" y="209.775844" style="fill-opacity: 0; stroke: #6f6f6f"/>
     <use xlink:href="#m310beb31d1" x="369" y="197.580586" style="fill-opacity: 0; stroke: #6f6f6f"/>
     <use xlink:href="#m310beb31d1" x="369" y="193.475722" style="fill-opacity: 0; stroke: #6f6f6f"/>
     <use xlink:href="#m310beb31d1" x="369" y="181.634103" style="fill-opacity: 0; stroke: #6f6f6f"/>
     <use xlink:href="#m310beb31d1" x="369" y="175.095094" style="fill-opacity: 0; stroke: #6f6f6f"/>
     <use xlink:href="#m310beb31d1" x="369" y="221.590905" style="fill-opacity: 0; stroke: #6f6f6f"/>
     <use xlink:href="#m310beb31d1" x="369" y="214.989108" style="fill-opacity: 0; stroke: #6f6f6f"/>
     <use xlink:href="#m310beb31d1" x="369" y="199.15368" style="fill-opacity: 0; stroke: #6f6f6f"/>
     <use xlink:href="#m310beb31d1" x="369" y="176.747827" style="fill-opacity: 0; stroke: #6f6f6f"/>
     <use xlink:href="#m310beb31d1" x="369" y="220.626754" style="fill-opacity: 0; stroke: #6f6f6f"/>
     <use xlink:href="#m310beb31d1" x="369" y="206.516762" style="fill-opacity: 0; stroke: #6f6f6f"/>
     <use xlink:href="#m310beb31d1" x="369" y="195.142363" style="fill-opacity: 0; stroke: #6f6f6f"/>
     <use xlink:href="#m310beb31d1" x="369" y="179.886743" style="fill-opacity: 0; stroke: #6f6f6f"/>
     <use xlink:href="#m310beb31d1" x="369" y="148.162904" style="fill-opacity: 0; stroke: #6f6f6f"/>
     <use xlink:href="#m310beb31d1" x="369" y="166.040306" style="fill-opacity: 0; stroke: #6f6f6f"/>
     <use xlink:href="#m310beb31d1" x="369" y="177.933133" style="fill-opacity: 0; stroke: #6f6f6f"/>
     <use xlink:href="#m310beb31d1" x="369" y="171.506729" style="fill-opacity: 0; stroke: #6f6f6f"/>
     <use xlink:href="#m310beb31d1" x="369" y="167.326656" style="fill-opacity: 0; stroke: #6f6f6f"/>
     <use xlink:href="#m310beb31d1" x="369" y="175.28363" style="fill-opacity: 0; stroke: #6f6f6f"/>
     <use xlink:href="#m310beb31d1" x="369" y="172.667417" style="fill-opacity: 0; stroke: #6f6f6f"/>
     <use xlink:href="#m310beb31d1" x="369" y="205.595025" style="fill-opacity: 0; stroke: #6f6f6f"/>
     <use xlink:href="#m310beb31d1" x="369" y="155.386163" style="fill-opacity: 0; stroke: #6f6f6f"/>
     <use xlink:href="#m310beb31d1" x="369" y="149.850275" style="fill-opacity: 0; stroke: #6f6f6f"/>
     <use xlink:href="#m310beb31d1" x="369" y="147.700424" style="fill-opacity: 0; stroke: #6f6f6f"/>
     <use xlink:href="#m310beb31d1" x="369" y="159.218397" style="fill-opacity: 0; stroke: #6f6f6f"/>
     <use xlink:href="#m310beb31d1" x="369" y="178.323228" style="fill-opacity: 0; stroke: #6f6f6f"/>
     <use xlink:href="#m310beb31d1" x="369" y="188.134254" style="fill-opacity: 0; stroke: #6f6f6f"/>
     <use xlink:href="#m310beb31d1" x="369" y="189.022461" style="fill-opacity: 0; stroke: #6f6f6f"/>
     <use xlink:href="#m310beb31d1" x="369" y="188.67476" style="fill-opacity: 0; stroke: #6f6f6f"/>
     <use xlink:href="#m310beb31d1" x="369" y="177.139883" style="fill-opacity: 0; stroke: #6f6f6f"/>
     <use xlink:href="#m310beb31d1" x="369" y="210.958868" style="fill-opacity: 0; stroke: #6f6f6f"/>
     <use xlink:href="#m310beb31d1" x="369" y="200.958297" style="fill-opacity: 0; stroke: #6f6f6f"/>
     <use xlink:href="#m310beb31d1" x="369" y="191.391509" style="fill-opacity: 0; stroke: #6f6f6f"/>
     <use xlink:href="#m310beb31d1" x="369" y="181.842699" style="fill-opacity: 0; stroke: #6f6f6f"/>
     <use xlink:href="#m310beb31d1" x="369" y="222.285046" style="fill-opacity: 0; stroke: #6f6f6f"/>
     <use xlink:href="#m310beb31d1" x="369" y="219.926149" style="fill-opacity: 0; stroke: #6f6f6f"/>
     <use xlink:href="#m310beb31d1" x="369" y="217.834007" style="fill-opacity: 0; stroke: #6f6f6f"/>
     <use xlink:href="#m310beb31d1" x="369" y="217.49785" style="fill-opacity: 0; stroke: #6f6f6f"/>
     <use xlink:href="#m310beb31d1" x="369" y="210.611324" style="fill-opacity: 0; stroke: #6f6f6f"/>
     <use xlink:href="#m310beb31d1" x="369" y="210.847977" style="fill-opacity: 0; stroke: #6f6f6f"/>
     <use xlink:href="#m310beb31d1" x="369" y="208.910333" style="fill-opacity: 0; stroke: #6f6f6f"/>
     <use xlink:href="#m310beb31d1" x="369" y="199.367014" style="fill-opacity: 0; stroke: #6f6f6f"/>
     <use xlink:href="#m310beb31d1" x="369" y="215.824417" style="fill-opacity: 0; stroke: #6f6f6f"/>
     <use xlink:href="#m310beb31d1" x="369" y="213.365071" style="fill-opacity: 0; stroke: #6f6f6f"/>
     <use xlink:href="#m310beb31d1" x="369" y="203.062119" style="fill-opacity: 0; stroke: #6f6f6f"/>
     <use xlink:href="#m310beb31d1" x="369" y="198.756844" style="fill-opacity: 0; stroke: #6f6f6f"/>
     <use xlink:href="#m310beb31d1" x="369" y="197.12226" style="fill-opacity: 0; stroke: #6f6f6f"/>
     <use xlink:href="#m310beb31d1" x="369" y="193.925984" style="fill-opacity: 0; stroke: #6f6f6f"/>
     <use xlink:href="#m310beb31d1" x="369" y="198.379547" style="fill-opacity: 0; stroke: #6f6f6f"/>
     <use xlink:href="#m310beb31d1" x="369" y="202.304189" style="fill-opacity: 0; stroke: #6f6f6f"/>
     <use xlink:href="#m310beb31d1" x="369" y="200.605664" style="fill-opacity: 0; stroke: #6f6f6f"/>
     <use xlink:href="#m310beb31d1" x="369" y="199.10618" style="fill-opacity: 0; stroke: #6f6f6f"/>
     <use xlink:href="#m310beb31d1" x="369" y="190.059867" style="fill-opacity: 0; stroke: #6f6f6f"/>
     <use xlink:href="#m310beb31d1" x="369" y="221.618191" style="fill-opacity: 0; stroke: #6f6f6f"/>
     <use xlink:href="#m310beb31d1" x="369" y="213.757033" style="fill-opacity: 0; stroke: #6f6f6f"/>
     <use xlink:href="#m310beb31d1" x="369" y="203.211215" style="fill-opacity: 0; stroke: #6f6f6f"/>
    </g>
   </g>
   <g id="patch_6">
    <path d="M 435.96 238.942584 
L 525.24 238.942584 
L 525.24 198.35201 
L 435.96 198.35201 
L 435.96 238.942584 
z
" clip-path="url(#p0514462d6b)" style="fill: #f2aba8; stroke: #6f6f6f; stroke-linejoin: miter"/>
   </g>
   <g id="line2d_48">
    <path d="M 480.6 238.942584 
L 480.6 290.448884 
" clip-path="url(#p0514462d6b)" style="fill: none; stroke: #6f6f6f"/>
   </g>
   <g id="line2d_49">
    <path d="M 480.6 198.35201 
L 480.6 169.833747 
" clip-path="url(#p0514462d6b)" style="fill: none; stroke: #6f6f6f"/>
   </g>
   <g id="line2d_50">
    <path d="M 458.28 290.448884 
L 502.92 290.448884 
" clip-path="url(#p0514462d6b)" style="fill: none; stroke: #6f6f6f; stroke-linecap: square"/>
   </g>
   <g id="line2d_51">
    <path d="M 458.28 169.833747 
L 502.92 169.833747 
" clip-path="url(#p0514462d6b)" style="fill: none; stroke: #6f6f6f; stroke-linecap: square"/>
   </g>
   <g id="line2d_52">
    <g clip-path="url(#p0514462d6b)">
     <use xlink:href="#m310beb31d1" x="480.6" y="163.004413" style="fill-opacity: 0; stroke: #6f6f6f"/>
     <use xlink:href="#m310beb31d1" x="480.6" y="154.871093" style="fill-opacity: 0; stroke: #6f6f6f"/>
     <use xlink:href="#m310beb31d1" x="480.6" y="147.388768" style="fill-opacity: 0; stroke: #6f6f6f"/>
     <use xlink:href="#m310beb31d1" x="480.6" y="145.623823" style="fill-opacity: 0; stroke: #6f6f6f"/>
     <use xlink:href="#m310beb31d1" x="480.6" y="138.212882" style="fill-opacity: 0; stroke: #6f6f6f"/>
     <use xlink:href="#m310beb31d1" x="480.6" y="138.739102" style="fill-opacity: 0; stroke: #6f6f6f"/>
     <use xlink:href="#m310beb31d1" x="480.6" y="134.093626" style="fill-opacity: 0; stroke: #6f6f6f"/>
     <use xlink:href="#m310beb31d1" x="480.6" y="127.180775" style="fill-opacity: 0; stroke: #6f6f6f"/>
     <use xlink:href="#m310beb31d1" x="480.6" y="122.95893" style="fill-opacity: 0; stroke: #6f6f6f"/>
     <use xlink:href="#m310beb31d1" x="480.6" y="167.59859" style="fill-opacity: 0; stroke: #6f6f6f"/>
     <use xlink:href="#m310beb31d1" x="480.6" y="160.261809" style="fill-opacity: 0; stroke: #6f6f6f"/>
     <use xlink:href="#m310beb31d1" x="480.6" y="155.169774" style="fill-opacity: 0; stroke: #6f6f6f"/>
     <use xlink:href="#m310beb31d1" x="480.6" y="153.95211" style="fill-opacity: 0; stroke: #6f6f6f"/>
     <use xlink:href="#m310beb31d1" x="480.6" y="157.42838" style="fill-opacity: 0; stroke: #6f6f6f"/>
     <use xlink:href="#m310beb31d1" x="480.6" y="166.913603" style="fill-opacity: 0; stroke: #6f6f6f"/>
     <use xlink:href="#m310beb31d1" x="480.6" y="162.710176" style="fill-opacity: 0; stroke: #6f6f6f"/>
     <use xlink:href="#m310beb31d1" x="480.6" y="153.442123" style="fill-opacity: 0; stroke: #6f6f6f"/>
     <use xlink:href="#m310beb31d1" x="480.6" y="148.026471" style="fill-opacity: 0; stroke: #6f6f6f"/>
     <use xlink:href="#m310beb31d1" x="480.6" y="143.167416" style="fill-opacity: 0; stroke: #6f6f6f"/>
     <use xlink:href="#m310beb31d1" x="480.6" y="141.291259" style="fill-opacity: 0; stroke: #6f6f6f"/>
     <use xlink:href="#m310beb31d1" x="480.6" y="132.541176" style="fill-opacity: 0; stroke: #6f6f6f"/>
     <use xlink:href="#m310beb31d1" x="480.6" y="129.17415" style="fill-opacity: 0; stroke: #6f6f6f"/>
     <use xlink:href="#m310beb31d1" x="480.6" y="123.711196" style="fill-opacity: 0; stroke: #6f6f6f"/>
     <use xlink:href="#m310beb31d1" x="480.6" y="119.337527" style="fill-opacity: 0; stroke: #6f6f6f"/>
     <use xlink:href="#m310beb31d1" x="480.6" y="114.717371" style="fill-opacity: 0; stroke: #6f6f6f"/>
    </g>
   </g>
   <g id="patch_7">
    <path d="M 547.56 169.304946 
L 636.84 169.304946 
L 636.84 147.115421 
L 547.56 147.115421 
L 547.56 169.304946 
z
" clip-path="url(#p0514462d6b)" style="fill: #d3c4f6; stroke: #6f6f6f; stroke-linejoin: miter"/>
   </g>
   <g id="line2d_53">
    <path d="M 592.2 169.304946 
L 592.2 186.139243 
" clip-path="url(#p0514462d6b)" style="fill: none; stroke: #6f6f6f"/>
   </g>
   <g id="line2d_54">
    <path d="M 592.2 147.115421 
L 592.2 131.237644 
" clip-path="url(#p0514462d6b)" style="fill: none; stroke: #6f6f6f"/>
   </g>
   <g id="line2d_55">
    <path d="M 569.88 186.139243 
L 614.52 186.139243 
" clip-path="url(#p0514462d6b)" style="fill: none; stroke: #6f6f6f; stroke-linecap: square"/>
   </g>
   <g id="line2d_56">
    <path d="M 569.88 131.237644 
L 614.52 131.237644 
" clip-path="url(#p0514462d6b)" style="fill: none; stroke: #6f6f6f; stroke-linecap: square"/>
   </g>
   <g id="line2d_57">
    <g clip-path="url(#p0514462d6b)">
     <use xlink:href="#m310beb31d1" x="592.2" y="125.576107" style="fill-opacity: 0; stroke: #6f6f6f"/>
    </g>
   </g>
   <g id="line2d_58">
    <path d="M 101.16 251.647636 
L 190.44 251.647636 
" clip-path="url(#p0514462d6b)" style="fill: none; stroke: #6f6f6f"/>
   </g>
   <g id="line2d_59">
    <path d="M 212.76 177.04116 
L 302.04 177.04116 
" clip-path="url(#p0514462d6b)" style="fill: none; stroke: #6f6f6f"/>
   </g>
   <g id="line2d_60">
    <path d="M 324.36 290.838852 
L 413.64 290.838852 
" clip-path="url(#p0514462d6b)" style="fill: none; stroke: #6f6f6f"/>
   </g>
   <g id="line2d_61">
    <path d="M 435.96 216.018174 
L 525.24 216.018174 
" clip-path="url(#p0514462d6b)" style="fill: none; stroke: #6f6f6f"/>
   </g>
   <g id="line2d_62">
    <path d="M 547.56 157.497201 
L 636.84 157.497201 
" clip-path="url(#p0514462d6b)" style="fill: none; stroke: #6f6f6f"/>
   </g>
   <g id="patch_8">
    <path d="M 90 384.48 
L 90 51.84 
" style="fill: none; stroke: #000000; stroke-width: 0.8; stroke-linejoin: miter; stroke-linecap: square"/>
   </g>
   <g id="patch_9">
    <path d="M 648 384.48 
L 648 51.84 
" style="fill: none; stroke: #000000; stroke-width: 0.8; stroke-linejoin: miter; stroke-linecap: square"/>
   </g>
   <g id="patch_10">
    <path d="M 90 384.48 
L 648 384.48 
" style="fill: none; stroke: #000000; stroke-width: 0.8; stroke-linejoin: miter; stroke-linecap: square"/>
   </g>
   <g id="patch_11">
    <path d="M 90 51.84 
L 648 51.84 
" style="fill: none; stroke: #000000; stroke-width: 0.8; stroke-linejoin: miter; stroke-linecap: square"/>
   </g>
  </g>
 </g>
 <defs>
  <clipPath id="p0514462d6b">
   <rect x="90" y="51.84" width="558" height="332.64"/>
  </clipPath>
 </defs>
</svg>
