<?xml version="1.0" encoding="utf-8" standalone="no"?>
<!DOCTYPE svg PUBLIC "-//W3C//DTD SVG 1.1//EN"
  "http://www.w3.org/Graphics/SVG/1.1/DTD/svg11.dtd">
<svg xmlns:xlink="http://www.w3.org/1999/xlink" width="720pt" height="432pt" viewBox="0 0 720 432" xmlns="http://www.w3.org/2000/svg" version="1.1">
 <metadata>
  <rdf:RDF xmlns:dc="http://purl.org/dc/elements/1.1/" xmlns:cc="http://creativecommons.org/ns#" xmlns:rdf="http://www.w3.org/1999/02/22-rdf-syntax-ns#">
   <cc:Work>
    <dc:type rdf:resource="http://purl.org/dc/dcmitype/StillImage"/>
    <dc:date>2025-02-26T15:49:24.972757</dc:date>
    <dc:format>image/svg+xml</dc:format>
    <dc:creator>
     <cc:Agent>
      <dc:title>Matplotlib v3.10.0, https://matplotlib.org/</dc:title>
     </cc:Agent>
    </dc:creator>
   </cc:Work>
  </rdf:RDF>
 </metadata>
 <defs>
  <style type="text/css">*{stroke-linejoin: round; stroke-linecap: butt}</style>
 </defs>
 <g id="figure_1">
  <g id="patch_1">
   <path d="M 0 432 
L 720 432 
L 720 0 
L 0 0 
z
" style="fill: #ffffff"/>
  </g>
  <g id="axes_1">
   <g id="patch_2">
    <path d="M 90 384.48 
L 648 384.48 
L 648 51.84 
L 90 51.84 
z
" style="fill: #ffffff"/>
   </g>
   <g id="FillBetweenPolyCollection_1">
    <defs>
     <path id="ma4b512c432" d="M 145.897312 -75.715437 
L 145.702688 -75.715437 
L 145.650715 -78.637907 
L 145.577767 -81.560378 
L 145.478712 -84.482848 
L 145.34848 -87.405318 
L 145.18251 -90.327789 
L 144.977187 -93.250259 
L 144.730137 -96.172729 
L 144.440284 -99.0952 
L 144.107589 -102.01767 
L 143.73248 -104.94014 
L 143.315047 -107.862611 
L 142.854175 -110.785081 
L 142.346834 -113.707551 
L 141.787759 -116.630022 
L 141.169655 -119.552492 
L 140.48401 -122.474962 
L 139.722396 -125.397433 
L 138.878075 -128.319903 
L 137.947612 -131.242373 
L 136.932225 -134.164844 
L 135.838633 -137.087314 
L 134.679293 -140.009784 
L 133.471995 -142.932255 
L 132.238909 -145.854725 
L 131.005195 -148.777195 
L 129.797335 -151.699666 
L 128.641311 -154.622136 
L 127.56076 -157.544606 
L 126.57522 -160.467077 
L 125.698612 -163.389547 
L 124.938089 -166.312017 
L 124.293409 -169.234488 
L 123.756931 -172.156958 
L 123.314268 -175.079428 
L 122.945505 -178.001899 
L 122.626806 -180.924369 
L 122.332134 -183.846839 
L 122.034818 -186.76931 
L 121.708817 -189.69178 
L 121.329641 -192.61425 
L 120.875095 -195.536721 
L 120.326066 -198.459191 
L 119.66759 -201.381661 
L 118.890266 -204.304132 
L 117.991852 -207.226602 
L 116.978667 -210.149072 
L 115.866289 -213.071543 
L 114.6791 -215.994013 
L 113.448459 -218.916483 
L 112.209623 -221.838954 
L 110.997899 -224.761424 
L 109.844696 -227.683894 
L 108.77423 -230.606365 
L 107.801435 -233.528835 
L 106.931342 -236.451305 
L 106.159888 -239.373776 
L 105.475812 -242.296246 
L 104.86323 -245.218716 
L 104.304476 -248.141187 
L 103.782958 -251.063657 
L 103.285892 -253.986127 
L 102.8069 -256.908598 
L 102.348392 -259.831068 
L 101.923548 -262.753538 
L 101.557514 -265.676009 
L 101.287312 -268.598479 
L 101.16 -271.520949 
L 101.228837 -274.44342 
L 101.547627 -277.36589 
L 102.163909 -280.28836 
L 103.11206 -283.210831 
L 104.407582 -286.133301 
L 106.043722 -289.055771 
L 107.991164 -291.978242 
L 110.200884 -294.900712 
L 112.609639 -297.823182 
L 115.14702 -300.745653 
L 117.742785 -303.668123 
L 120.333222 -306.590593 
L 122.865661 -309.513064 
L 125.300677 -312.435534 
L 127.612059 -315.358004 
L 129.784982 -318.280475 
L 131.81308 -321.202945 
L 133.695159 -324.125415 
L 135.432239 -327.047886 
L 137.02538 -329.970356 
L 138.474561 -332.892826 
L 139.778606 -335.815297 
L 140.935931 -338.737767 
L 141.94579 -341.660237 
L 142.809584 -344.582708 
L 143.531889 -347.505178 
L 144.120942 -350.427648 
L 144.588486 -353.350119 
L 144.949046 -356.272589 
L 145.21882 -359.195059 
L 145.414426 -362.11753 
L 145.551734 -365.04 
L 146.048266 -365.04 
L 146.048266 -365.04 
L 146.185574 -362.11753 
L 146.38118 -359.195059 
L 146.650954 -356.272589 
L 147.011514 -353.350119 
L 147.479058 -350.427648 
L 148.068111 -347.505178 
L 148.790416 -344.582708 
L 149.65421 -341.660237 
L 150.664069 -338.737767 
L 151.821394 -335.815297 
L 153.125439 -332.892826 
L 154.57462 -329.970356 
L 156.167761 -327.047886 
L 157.904841 -324.125415 
L 159.78692 -321.202945 
L 161.815018 -318.280475 
L 163.987941 -315.358004 
L 166.299323 -312.435534 
L 168.734339 -309.513064 
L 171.266778 -306.590593 
L 173.857215 -303.668123 
L 176.45298 -300.745653 
L 178.990361 -297.823182 
L 181.399116 -294.900712 
L 183.608836 -291.978242 
L 185.556278 -289.055771 
L 187.192418 -286.133301 
L 188.48794 -283.210831 
L 189.436091 -280.28836 
L 190.052373 -277.36589 
L 190.371163 -274.44342 
L 190.44 -271.520949 
L 190.312688 -268.598479 
L 190.042486 -265.676009 
L 189.676452 -262.753538 
L 189.251608 -259.831068 
L 188.7931 -256.908598 
L 188.314108 -253.986127 
L 187.817042 -251.063657 
L 187.295524 -248.141187 
L 186.73677 -245.218716 
L 186.124188 -242.296246 
L 185.440112 -239.373776 
L 184.668658 -236.451305 
L 183.798565 -233.528835 
L 182.82577 -230.606365 
L 181.755304 -227.683894 
L 180.602101 -224.761424 
L 179.390377 -221.838954 
L 178.151541 -218.916483 
L 176.9209 -215.994013 
L 175.733711 -213.071543 
L 174.621333 -210.149072 
L 173.608148 -207.226602 
L 172.709734 -204.304132 
L 171.93241 -201.381661 
L 171.273934 -198.459191 
L 170.724905 -195.536721 
L 170.270359 -192.61425 
L 169.891183 -189.69178 
L 169.565182 -186.76931 
L 169.267866 -183.846839 
L 168.973194 -180.924369 
L 168.654495 -178.001899 
L 168.285732 -175.079428 
L 167.843069 -172.156958 
L 167.306591 -169.234488 
L 166.661911 -166.312017 
L 165.901388 -163.389547 
L 165.02478 -160.467077 
L 164.03924 -157.544606 
L 162.958689 -154.622136 
L 161.802665 -151.699666 
L 160.594805 -148.777195 
L 159.361091 -145.854725 
L 158.128005 -142.932255 
L 156.920707 -140.009784 
L 155.761367 -137.087314 
L 154.667775 -134.164844 
L 153.652388 -131.242373 
L 152.721925 -128.319903 
L 151.877604 -125.397433 
L 151.11599 -122.474962 
L 150.430345 -119.552492 
L 149.812241 -116.630022 
L 149.253166 -113.707551 
L 148.745825 -110.785081 
L 148.284953 -107.862611 
L 147.86752 -104.94014 
L 147.492411 -102.01767 
L 147.159716 -99.0952 
L 146.869863 -96.172729 
L 146.622813 -93.250259 
L 146.41749 -90.327789 
L 146.25152 -87.405318 
L 146.121288 -84.482848 
L 146.022233 -81.560378 
L 145.949285 -78.637907 
L 145.897312 -75.715437 
z
" style="stroke: #545454; stroke-width: 1.25"/>
    </defs>
    <g clip-path="url(#p71130bd76b)">
     <use xlink:href="#ma4b512c432" x="0" y="432" style="fill: #597dbf; stroke: #545454; stroke-width: 1.25"/>
    </g>
   </g>
   <g id="FillBetweenPolyCollection_2">
    <defs>
     <path id="md02475a546" d="M 257.447444 -154.720609 
L 257.352556 -154.720609 
L 257.321392 -156.644723 
L 257.278943 -158.568837 
L 257.226695 -160.492951 
L 257.169286 -162.417065 
L 257.1142 -164.341179 
L 257.070117 -166.265293 
L 257.044238 -168.189407 
L 257.039558 -170.113521 
L 257.053295 -172.037635 
L 257.077359 -173.961749 
L 257.100889 -175.885863 
L 257.113959 -177.809977 
L 257.111033 -179.734091 
L 257.092818 -181.658205 
L 257.065741 -183.582319 
L 257.03922 -185.506433 
L 257.021715 -187.430547 
L 257.017079 -189.354661 
L 257.022673 -191.278775 
L 257.02995 -193.202889 
L 257.027231 -195.127003 
L 257.003452 -197.051117 
L 256.951415 -198.975231 
L 256.869478 -200.899345 
L 256.761509 -202.823459 
L 256.635662 -204.747573 
L 256.502726 -206.671687 
L 256.374466 -208.595801 
L 256.261782 -210.519915 
L 256.172381 -212.444029 
L 256.108052 -214.368143 
L 256.062392 -216.292257 
L 256.020261 -218.216371 
L 255.959902 -220.140485 
L 255.857601 -222.064599 
L 255.693622 -223.988713 
L 255.45749 -225.912827 
L 255.150961 -227.836941 
L 254.787899 -229.761055 
L 254.391416 -231.685169 
L 253.989487 -233.609283 
L 253.610379 -235.533397 
L 253.278585 -237.457511 
L 253.010993 -239.381625 
L 252.812601 -241.305739 
L 252.671926 -243.229853 
L 252.557906 -245.153967 
L 252.421087 -247.078081 
L 252.200798 -249.002195 
L 251.836916 -250.926309 
L 251.281881 -252.850423 
L 250.508096 -254.774537 
L 249.508346 -256.698651 
L 248.290263 -258.622765 
L 246.867586 -260.546879 
L 245.250245 -262.470993 
L 243.434245 -264.395107 
L 241.393407 -266.319221 
L 239.078157 -268.243335 
L 236.428272 -270.167449 
L 233.402655 -272.091563 
L 230.019633 -274.015677 
L 226.391063 -275.939791 
L 222.730234 -277.863905 
L 219.321675 -279.788019 
L 216.457849 -281.712133 
L 214.364577 -283.636247 
L 213.144374 -285.560361 
L 212.76 -287.484475 
L 213.062764 -289.408589 
L 213.850836 -291.332703 
L 214.931853 -293.256817 
L 216.166266 -295.180931 
L 217.480355 -297.105045 
L 218.852817 -299.029159 
L 220.288601 -300.953273 
L 221.794936 -302.877387 
L 223.368917 -304.801501 
L 224.998226 -306.725615 
L 226.670392 -308.649729 
L 228.383492 -310.573843 
L 230.152131 -312.497957 
L 232.005556 -314.422071 
L 233.978284 -316.346185 
L 236.096439 -318.270299 
L 238.364363 -320.194413 
L 240.75591 -322.118527 
L 243.213288 -324.042641 
L 245.653999 -325.966755 
L 247.984054 -327.890869 
L 250.113884 -329.814983 
L 251.97285 -331.739097 
L 253.518987 -333.663211 
L 254.742233 -335.587325 
L 255.661314 -337.511439 
L 256.316028 -339.435553 
L 256.75747 -341.359667 
L 257.038701 -343.283781 
L 257.207693 -345.207895 
L 257.592307 -345.207895 
L 257.592307 -345.207895 
L 257.761299 -343.283781 
L 258.04253 -341.359667 
L 258.483972 -339.435553 
L 259.138686 -337.511439 
L 260.057767 -335.587325 
L 261.281013 -333.663211 
L 262.82715 -331.739097 
L 264.686116 -329.814983 
L 266.815946 -327.890869 
L 269.146001 -325.966755 
L 271.586712 -324.042641 
L 274.04409 -322.118527 
L 276.435637 -320.194413 
L 278.703561 -318.270299 
L 280.821716 -316.346185 
L 282.794444 -314.422071 
L 284.647869 -312.497957 
L 286.416508 -310.573843 
L 288.129608 -308.649729 
L 289.801774 -306.725615 
L 291.431083 -304.801501 
L 293.005064 -302.877387 
L 294.511399 -300.953273 
L 295.947183 -299.029159 
L 297.319645 -297.105045 
L 298.633734 -295.180931 
L 299.868147 -293.256817 
L 300.949164 -291.332703 
L 301.737236 -289.408589 
L 302.04 -287.484475 
L 301.655626 -285.560361 
L 300.435423 -283.636247 
L 298.342151 -281.712133 
L 295.478325 -279.788019 
L 292.069766 -277.863905 
L 288.408937 -275.939791 
L 284.780367 -274.015677 
L 281.397345 -272.091563 
L 278.371728 -270.167449 
L 275.721843 -268.243335 
L 273.406593 -266.319221 
L 271.365755 -264.395107 
L 269.549755 -262.470993 
L 267.932414 -260.546879 
L 266.509737 -258.622765 
L 265.291654 -256.698651 
L 264.291904 -254.774537 
L 263.518119 -252.850423 
L 262.963084 -250.926309 
L 262.599202 -249.002195 
L 262.378913 -247.078081 
L 262.242094 -245.153967 
L 262.128074 -243.229853 
L 261.987399 -241.305739 
L 261.789007 -239.381625 
L 261.521415 -237.457511 
L 261.189621 -235.533397 
L 260.810513 -233.609283 
L 260.408584 -231.685169 
L 260.012101 -229.761055 
L 259.649039 -227.836941 
L 259.34251 -225.912827 
L 259.106378 -223.988713 
L 258.942399 -222.064599 
L 258.840098 -220.140485 
L 258.779739 -218.216371 
L 258.737608 -216.292257 
L 258.691948 -214.368143 
L 258.627619 -212.444029 
L 258.538218 -210.519915 
L 258.425534 -208.595801 
L 258.297274 -206.671687 
L 258.164338 -204.747573 
L 258.038491 -202.823459 
L 257.930522 -200.899345 
L 257.848585 -198.975231 
L 257.796548 -197.051117 
L 257.772769 -195.127003 
L 257.77005 -193.202889 
L 257.777327 -191.278775 
L 257.782921 -189.354661 
L 257.778285 -187.430547 
L 257.76078 -185.506433 
L 257.734259 -183.582319 
L 257.707182 -181.658205 
L 257.688967 -179.734091 
L 257.686041 -177.809977 
L 257.699111 -175.885863 
L 257.722641 -173.961749 
L 257.746705 -172.037635 
L 257.760442 -170.113521 
L 257.755762 -168.189407 
L 257.729883 -166.265293 
L 257.6858 -164.341179 
L 257.630714 -162.417065 
L 257.573305 -160.492951 
L 257.521057 -158.568837 
L 257.478608 -156.644723 
L 257.447444 -154.720609 
z
" style="stroke: #545454; stroke-width: 1.25"/>
    </defs>
    <g clip-path="url(#p71130bd76b)">
     <use xlink:href="#md02475a546" x="0" y="432" style="fill: #d98b5f; stroke: #545454; stroke-width: 1.25"/>
    </g>
   </g>
   <g id="FillBetweenPolyCollection_3">
    <defs>
     <path id="m2525454e68" d="M 369.034147 -62.64 
L 368.965853 -62.64 
L 368.945233 -65.339337 
L 368.917503 -68.038675 
L 368.883226 -70.738012 
L 368.844495 -73.43735 
L 368.804749 -76.136687 
L 368.767851 -78.836024 
L 368.736472 -81.535362 
L 368.710108 -84.234699 
L 368.683295 -86.934036 
L 368.644633 -89.633374 
L 368.577032 -92.332711 
L 368.459217 -95.032049 
L 368.268191 -97.731386 
L 367.982037 -100.430723 
L 367.582393 -103.130061 
L 367.056024 -105.829398 
L 366.395214 -108.528736 
L 365.597047 -111.228073 
L 364.661927 -113.92741 
L 363.591788 -116.626748 
L 362.388334 -119.326085 
L 361.051462 -122.025422 
L 359.577953 -124.72476 
L 357.960644 -127.424097 
L 356.188637 -130.123435 
L 354.249246 -132.822772 
L 352.132127 -135.522109 
L 349.835256 -138.221447 
L 347.371286 -140.920784 
L 344.772112 -143.620122 
L 342.089517 -146.319459 
L 339.391045 -149.018796 
L 336.752087 -151.718134 
L 334.246805 -154.417471 
L 331.940852 -157.116808 
L 329.887737 -159.816146 
L 328.128574 -162.515483 
L 326.693239 -165.214821 
L 325.600602 -167.914158 
L 324.856755 -170.613495 
L 324.452147 -173.312833 
L 324.36 -176.01217 
L 324.538323 -178.711508 
L 324.936335 -181.410845 
L 325.503977 -184.110182 
L 326.201624 -186.80952 
L 327.006766 -189.508857 
L 327.915391 -192.208195 
L 328.937543 -194.907532 
L 330.088404 -197.606869 
L 331.377707 -200.306207 
L 332.800876 -203.005544 
L 334.334825 -205.704881 
L 335.939809 -208.404219 
L 337.566666 -211.103556 
L 339.166917 -213.802894 
L 340.70246 -216.502231 
L 342.15207 -219.201568 
L 343.513406 -221.900906 
L 344.800774 -224.600243 
L 346.039947 -227.299581 
L 347.261599 -229.998918 
L 348.494685 -232.698255 
L 349.760803 -235.397593 
L 351.070253 -238.09693 
L 352.420275 -240.796267 
L 353.795558 -243.495605 
L 355.170661 -246.194942 
L 356.51367 -248.89428 
L 357.790262 -251.593617 
L 358.96753 -254.292954 
L 360.017155 -256.992292 
L 360.917764 -259.691629 
L 361.656504 -262.390967 
L 362.229936 -265.090304 
L 362.644429 -267.789641 
L 362.916186 -270.488979 
L 363.070876 -273.188316 
L 363.142598 -275.887653 
L 363.171751 -278.586991 
L 363.201518 -281.286328 
L 363.273059 -283.985666 
L 363.420105 -286.685003 
L 363.664155 -289.38434 
L 364.011519 -292.083678 
L 364.453107 -294.783015 
L 364.96706 -297.482353 
L 365.523483 -300.18169 
L 366.08998 -302.881027 
L 366.636622 -305.580365 
L 367.139403 -308.279702 
L 367.581887 -310.979039 
L 367.955315 -313.678377 
L 368.257714 -316.377714 
L 368.492523 -319.077052 
L 368.667051 -321.776389 
L 368.79093 -324.475726 
L 368.87468 -327.175064 
L 368.928465 -329.874401 
L 369.071535 -329.874401 
L 369.071535 -329.874401 
L 369.12532 -327.175064 
L 369.20907 -324.475726 
L 369.332949 -321.776389 
L 369.507477 -319.077052 
L 369.742286 -316.377714 
L 370.044685 -313.678377 
L 370.418113 -310.979039 
L 370.860597 -308.279702 
L 371.363378 -305.580365 
L 371.91002 -302.881027 
L 372.476517 -300.18169 
L 373.03294 -297.482353 
L 373.546893 -294.783015 
L 373.988481 -292.083678 
L 374.335845 -289.38434 
L 374.579895 -286.685003 
L 374.726941 -283.985666 
L 374.798482 -281.286328 
L 374.828249 -278.586991 
L 374.857402 -275.887653 
L 374.929124 -273.188316 
L 375.083814 -270.488979 
L 375.355571 -267.789641 
L 375.770064 -265.090304 
L 376.343496 -262.390967 
L 377.082236 -259.691629 
L 377.982845 -256.992292 
L 379.03247 -254.292954 
L 380.209738 -251.593617 
L 381.48633 -248.89428 
L 382.829339 -246.194942 
L 384.204442 -243.495605 
L 385.579725 -240.796267 
L 386.929747 -238.09693 
L 388.239197 -235.397593 
L 389.505315 -232.698255 
L 390.738401 -229.998918 
L 391.960053 -227.299581 
L 393.199226 -224.600243 
L 394.486594 -221.900906 
L 395.84793 -219.201568 
L 397.29754 -216.502231 
L 398.833083 -213.802894 
L 400.433334 -211.103556 
L 402.060191 -208.404219 
L 403.665175 -205.704881 
L 405.199124 -203.005544 
L 406.622293 -200.306207 
L 407.911596 -197.606869 
L 409.062457 -194.907532 
L 410.084609 -192.208195 
L 410.993234 -189.508857 
L 411.798376 -186.80952 
L 412.496023 -184.110182 
L 413.063665 -181.410845 
L 413.461677 -178.711508 
L 413.64 -176.01217 
L 413.547853 -173.312833 
L 413.143245 -170.613495 
L 412.399398 -167.914158 
L 411.306761 -165.214821 
L 409.871426 -162.515483 
L 408.112263 -159.816146 
L 406.059148 -157.116808 
L 403.753195 -154.417471 
L 401.247913 -151.718134 
L 398.608955 -149.018796 
L 395.910483 -146.319459 
L 393.227888 -143.620122 
L 390.628714 -140.920784 
L 388.164744 -138.221447 
L 385.867873 -135.522109 
L 383.750754 -132.822772 
L 381.811363 -130.123435 
L 380.039356 -127.424097 
L 378.422047 -124.72476 
L 376.948538 -122.025422 
L 375.611666 -119.326085 
L 374.408212 -116.626748 
L 373.338073 -113.92741 
L 372.402953 -111.228073 
L 371.604786 -108.528736 
L 370.943976 -105.829398 
L 370.417607 -103.130061 
L 370.017963 -100.430723 
L 369.731809 -97.731386 
L 369.540783 -95.032049 
L 369.422968 -92.332711 
L 369.355367 -89.633374 
L 369.316705 -86.934036 
L 369.289892 -84.234699 
L 369.263528 -81.535362 
L 369.232149 -78.836024 
L 369.195251 -76.136687 
L 369.155505 -73.43735 
L 369.116774 -70.738012 
L 369.082497 -68.038675 
L 369.054767 -65.339337 
L 369.034147 -62.64 
z
" style="stroke: #545454; stroke-width: 1.25"/>
    </defs>
    <g clip-path="url(#p71130bd76b)">
     <use xlink:href="#m2525454e68" x="0" y="432" style="fill: #75bf71; stroke: #545454; stroke-width: 1.25"/>
    </g>
   </g>
   <g id="FillBetweenPolyCollection_4">
    <defs>
     <path id="m5fe6f051f5" d="M 480.668939 -118.079579 
L 480.531061 -118.079579 
L 480.496966 -120.439015 
L 480.449832 -122.798452 
L 480.38624 -125.157888 
L 480.302337 -127.517324 
L 480.193859 -129.876761 
L 480.056181 -132.236197 
L 479.884408 -134.595634 
L 479.673566 -136.95507 
L 479.418915 -139.314506 
L 479.116413 -141.673943 
L 478.763313 -144.033379 
L 478.35883 -146.392816 
L 477.904748 -148.752252 
L 477.40584 -151.111689 
L 476.869949 -153.471125 
L 476.30767 -155.830561 
L 475.731592 -158.189998 
L 475.155208 -160.549434 
L 474.591621 -162.908871 
L 474.052255 -165.268307 
L 473.545746 -167.627743 
L 473.077199 -169.98718 
L 472.647901 -172.346616 
L 472.255528 -174.706053 
L 471.894795 -177.065489 
L 471.558411 -179.424925 
L 471.238129 -181.784362 
L 470.925658 -184.143798 
L 470.613209 -186.503235 
L 470.293566 -188.862671 
L 469.959688 -191.222108 
L 469.604045 -193.581544 
L 469.218016 -195.94098 
L 468.791713 -198.300417 
L 468.314526 -200.659853 
L 467.776466 -203.01929 
L 467.170124 -205.378726 
L 466.492799 -207.738162 
L 465.748236 -210.097599 
L 464.947409 -212.457035 
L 464.10798 -214.816472 
L 463.252382 -217.175908 
L 462.404791 -219.535344 
L 461.587534 -221.894781 
L 460.817597 -224.254217 
L 460.10389 -226.613654 
L 459.445732 -228.97309 
L 458.832778 -231.332526 
L 458.24631 -233.691963 
L 457.661569 -236.051399 
L 457.050671 -238.410836 
L 456.385584 -240.770272 
L 455.640725 -243.129709 
L 454.794907 -245.489145 
L 453.832551 -247.848581 
L 452.744264 -250.208018 
L 451.527054 -252.567454 
L 450.18448 -254.926891 
L 448.726998 -257.286327 
L 447.172618 -259.645763 
L 445.547815 -262.0052 
L 443.888398 -264.364636 
L 442.239931 -266.724073 
L 440.657235 -269.083509 
L 439.202593 -271.442945 
L 437.942539 -273.802382 
L 436.943364 -276.161818 
L 436.265862 -278.521255 
L 435.96 -280.880691 
L 436.060345 -283.240127 
L 436.58294 -285.599564 
L 437.524096 -287.959 
L 438.861223 -290.318437 
L 440.555479 -292.677873 
L 442.555754 -295.03731 
L 444.803346 -297.396746 
L 447.236658 -299.756182 
L 449.795338 -302.115619 
L 452.42344 -304.475055 
L 455.071353 -306.834492 
L 457.696512 -309.193928 
L 460.263048 -311.553364 
L 462.740733 -313.912801 
L 465.103666 -316.272237 
L 467.329147 -318.631674 
L 469.397068 -320.99111 
L 471.290002 -323.350546 
L 472.993918 -325.709983 
L 474.499266 -328.069419 
L 475.802071 -330.428856 
L 476.904655 -332.788292 
L 477.815742 -335.147728 
L 478.549831 -337.507165 
L 479.125936 -339.866601 
L 479.565917 -342.226038 
L 479.892685 -344.585474 
L 480.128555 -346.944911 
L 480.293959 -349.304347 
L 480.406601 -351.663783 
L 480.793399 -351.663783 
L 480.793399 -351.663783 
L 480.906041 -349.304347 
L 481.071445 -346.944911 
L 481.307315 -344.585474 
L 481.634083 -342.226038 
L 482.074064 -339.866601 
L 482.650169 -337.507165 
L 483.384258 -335.147728 
L 484.295345 -332.788292 
L 485.397929 -330.428856 
L 486.700734 -328.069419 
L 488.206082 -325.709983 
L 489.909998 -323.350546 
L 491.802932 -320.99111 
L 493.870853 -318.631674 
L 496.096334 -316.272237 
L 498.459267 -313.912801 
L 500.936952 -311.553364 
L 503.503488 -309.193928 
L 506.128647 -306.834492 
L 508.77656 -304.475055 
L 511.404662 -302.115619 
L 513.963342 -299.756182 
L 516.396654 -297.396746 
L 518.644246 -295.03731 
L 520.644521 -292.677873 
L 522.338777 -290.318437 
L 523.675904 -287.959 
L 524.61706 -285.599564 
L 525.139655 -283.240127 
L 525.24 -280.880691 
L 524.934138 -278.521255 
L 524.256636 -276.161818 
L 523.257461 -273.802382 
L 521.997407 -271.442945 
L 520.542765 -269.083509 
L 518.960069 -266.724073 
L 517.311602 -264.364636 
L 515.652185 -262.0052 
L 514.027382 -259.645763 
L 512.473002 -257.286327 
L 511.01552 -254.926891 
L 509.672946 -252.567454 
L 508.455736 -250.208018 
L 507.367449 -247.848581 
L 506.405093 -245.489145 
L 505.559275 -243.129709 
L 504.814416 -240.770272 
L 504.149329 -238.410836 
L 503.538431 -236.051399 
L 502.95369 -233.691963 
L 502.367222 -231.332526 
L 501.754268 -228.97309 
L 501.09611 -226.613654 
L 500.382403 -224.254217 
L 499.612466 -221.894781 
L 498.795209 -219.535344 
L 497.947618 -217.175908 
L 497.09202 -214.816472 
L 496.252591 -212.457035 
L 495.451764 -210.097599 
L 494.707201 -207.738162 
L 494.029876 -205.378726 
L 493.423534 -203.01929 
L 492.885474 -200.659853 
L 492.408287 -198.300417 
L 491.981984 -195.94098 
L 491.595955 -193.581544 
L 491.240312 -191.222108 
L 490.906434 -188.862671 
L 490.586791 -186.503235 
L 490.274342 -184.143798 
L 489.961871 -181.784362 
L 489.641589 -179.424925 
L 489.305205 -177.065489 
L 488.944472 -174.706053 
L 488.552099 -172.346616 
L 488.122801 -169.98718 
L 487.654254 -167.627743 
L 487.147745 -165.268307 
L 486.608379 -162.908871 
L 486.044792 -160.549434 
L 485.468408 -158.189998 
L 484.89233 -155.830561 
L 484.330051 -153.471125 
L 483.79416 -151.111689 
L 483.295252 -148.752252 
L 482.84117 -146.392816 
L 482.436687 -144.033379 
L 482.083587 -141.673943 
L 481.781085 -139.314506 
L 481.526434 -136.95507 
L 481.315592 -134.595634 
L 481.143819 -132.236197 
L 481.006141 -129.876761 
L 480.897663 -127.517324 
L 480.81376 -125.157888 
L 480.750168 -122.798452 
L 480.703034 -120.439015 
L 480.668939 -118.079579 
z
" style="stroke: #545454; stroke-width: 1.25"/>
    </defs>
    <g clip-path="url(#p71130bd76b)">
     <use xlink:href="#m5fe6f051f5" x="0" y="432" style="fill: #c76e6e; stroke: #545454; stroke-width: 1.25"/>
    </g>
   </g>
   <g id="FillBetweenPolyCollection_5">
    <defs>
     <path id="m171f3510e5" d="M 593.596121 -260.274742 
L 590.803879 -260.274742 
L 590.444373 -261.13909 
L 590.011323 -262.003437 
L 589.494761 -262.867785 
L 588.884578 -263.732133 
L 588.17082 -264.596481 
L 587.344043 -265.460829 
L 586.395706 -266.325177 
L 585.318601 -267.189524 
L 584.107303 -268.053872 
L 582.758618 -268.91822 
L 581.272015 -269.782568 
L 579.650014 -270.646916 
L 577.898505 -271.511263 
L 576.026984 -272.375611 
L 574.048676 -273.239959 
L 571.980521 -274.104307 
L 569.843029 -274.968655 
L 567.659973 -275.833002 
L 565.457934 -276.69735 
L 563.265698 -277.561698 
L 561.11352 -278.426046 
L 559.032288 -279.290394 
L 557.052596 -280.154742 
L 555.203797 -281.019089 
L 553.513041 -281.883437 
L 552.004376 -282.747785 
L 550.697934 -283.612133 
L 549.609261 -284.476481 
L 548.748808 -285.340828 
L 548.12163 -286.205176 
L 547.727292 -287.069524 
L 547.56 -287.933872 
L 547.608932 -288.79822 
L 547.858765 -289.662568 
L 548.290352 -290.526915 
L 548.881515 -291.391263 
L 549.607917 -292.255611 
L 550.443948 -293.119959 
L 551.363598 -293.984307 
L 552.341268 -294.848654 
L 553.352495 -295.713002 
L 554.374559 -296.57735 
L 555.386962 -297.441698 
L 556.371777 -298.306046 
L 557.313872 -299.170393 
L 558.201008 -300.034741 
L 559.023849 -300.899089 
L 559.775868 -301.763437 
L 560.453206 -302.627785 
L 561.054466 -303.492133 
L 561.580486 -304.35648 
L 562.034081 -305.220828 
L 562.419786 -306.085176 
L 562.743597 -306.949524 
L 563.012717 -307.813872 
L 563.23532 -308.678219 
L 563.420329 -309.542567 
L 563.577213 -310.406915 
L 563.715813 -311.271263 
L 563.846174 -312.135611 
L 563.978406 -312.999958 
L 564.122554 -313.864306 
L 564.288478 -314.728654 
L 564.485731 -315.593002 
L 564.723437 -316.45735 
L 565.010158 -317.321698 
L 565.353746 -318.186045 
L 565.761178 -319.050393 
L 566.238378 -319.914741 
L 566.79003 -320.779089 
L 567.419393 -321.643437 
L 568.128119 -322.507784 
L 568.916108 -323.372132 
L 569.781391 -324.23648 
L 570.720074 -325.100828 
L 571.726344 -325.965176 
L 572.792551 -326.829524 
L 573.909362 -327.693871 
L 575.065998 -328.558219 
L 576.250536 -329.422567 
L 577.45026 -330.286915 
L 578.652066 -331.151263 
L 579.842868 -332.01561 
L 581.010017 -332.879958 
L 582.141682 -333.744306 
L 583.2272 -334.608654 
L 584.257355 -335.473002 
L 585.224588 -336.337349 
L 586.123132 -337.201697 
L 586.949059 -338.066045 
L 587.70025 -338.930393 
L 588.376299 -339.794741 
L 588.978354 -340.659089 
L 589.508916 -341.523436 
L 589.971602 -342.387784 
L 590.370899 -343.252132 
L 590.711915 -344.11648 
L 591.000137 -344.980828 
L 591.241218 -345.845175 
L 593.158782 -345.845175 
L 593.158782 -345.845175 
L 593.399863 -344.980828 
L 593.688085 -344.11648 
L 594.029101 -343.252132 
L 594.428398 -342.387784 
L 594.891084 -341.523436 
L 595.421646 -340.659089 
L 596.023701 -339.794741 
L 596.69975 -338.930393 
L 597.450941 -338.066045 
L 598.276868 -337.201697 
L 599.175412 -336.337349 
L 600.142645 -335.473002 
L 601.1728 -334.608654 
L 602.258318 -333.744306 
L 603.389983 -332.879958 
L 604.557132 -332.01561 
L 605.747934 -331.151263 
L 606.94974 -330.286915 
L 608.149464 -329.422567 
L 609.334002 -328.558219 
L 610.490638 -327.693871 
L 611.607449 -326.829524 
L 612.673656 -325.965176 
L 613.679926 -325.100828 
L 614.618609 -324.23648 
L 615.483892 -323.372132 
L 616.271881 -322.507784 
L 616.980607 -321.643437 
L 617.60997 -320.779089 
L 618.161622 -319.914741 
L 618.638822 -319.050393 
L 619.046254 -318.186045 
L 619.389842 -317.321698 
L 619.676563 -316.45735 
L 619.914269 -315.593002 
L 620.111522 -314.728654 
L 620.277446 -313.864306 
L 620.421594 -312.999958 
L 620.553826 -312.135611 
L 620.684187 -311.271263 
L 620.822787 -310.406915 
L 620.979671 -309.542567 
L 621.16468 -308.678219 
L 621.387283 -307.813872 
L 621.656403 -306.949524 
L 621.980214 -306.085176 
L 622.365919 -305.220828 
L 622.819514 -304.35648 
L 623.345534 -303.492133 
L 623.946794 -302.627785 
L 624.624132 -301.763437 
L 625.376151 -300.899089 
L 626.198992 -300.034741 
L 627.086128 -299.170393 
L 628.028223 -298.306046 
L 629.013038 -297.441698 
L 630.025441 -296.57735 
L 631.047505 -295.713002 
L 632.058732 -294.848654 
L 633.036402 -293.984307 
L 633.956052 -293.119959 
L 634.792083 -292.255611 
L 635.518485 -291.391263 
L 636.109648 -290.526915 
L 636.541235 -289.662568 
L 636.791068 -288.79822 
L 636.84 -287.933872 
L 636.672708 -287.069524 
L 636.27837 -286.205176 
L 635.651192 -285.340828 
L 634.790739 -284.476481 
L 633.702066 -283.612133 
L 632.395624 -282.747785 
L 630.886959 -281.883437 
L 629.196203 -281.019089 
L 627.347404 -280.154742 
L 625.367712 -279.290394 
L 623.28648 -278.426046 
L 621.134302 -277.561698 
L 618.942066 -276.69735 
L 616.740027 -275.833002 
L 614.556971 -274.968655 
L 612.419479 -274.104307 
L 610.351324 -273.239959 
L 608.373016 -272.375611 
L 606.501495 -271.511263 
L 604.749986 -270.646916 
L 603.127985 -269.782568 
L 601.641382 -268.91822 
L 600.292697 -268.053872 
L 599.081399 -267.189524 
L 598.004294 -266.325177 
L 597.055957 -265.460829 
L 596.22918 -264.596481 
L 595.515422 -263.732133 
L 594.905239 -262.867785 
L 594.388677 -262.003437 
L 593.955627 -261.13909 
L 593.596121 -260.274742 
z
" style="stroke: #545454; stroke-width: 1.25"/>
    </defs>
    <g clip-path="url(#p71130bd76b)">
     <use xlink:href="#m171f3510e5" x="0" y="432" style="fill: #9475ab; stroke: #545454; stroke-width: 1.25"/>
    </g>
   </g>
   <g id="matplotlib.axis_1">
    <g id="xtick_1">
     <g id="line2d_1">
      <defs>
       <path id="m81f591ab00" d="M 0 0 
L 0 3.5 
" style="stroke: #000000; stroke-width: 0.8"/>
      </defs>
      <g>
       <use xlink:href="#m81f591ab00" x="145.8" y="384.48" style="stroke: #000000; stroke-width: 0.8"/>
      </g>
     </g>
     <g id="text_1">
      <!-- Asia -->
      <g transform="translate(131.130625 402.117813) scale(0.14 -0.14)">
       <defs>
        <path id="DejaVuSans-41" d="M 2188 4044 
L 1331 1722 
L 3047 1722 
L 2188 4044 
z
M 1831 4666 
L 2547 4666 
L 4325 0 
L 3669 0 
L 3244 1197 
L 1141 1197 
L 716 0 
L 50 0 
L 1831 4666 
z
" transform="scale(0.015625)"/>
        <path id="DejaVuSans-73" d="M 2834 3397 
L 2834 2853 
Q 2591 2978 2328 3040 
Q 2066 3103 1784 3103 
Q 1356 3103 1142 2972 
Q 928 2841 928 2578 
Q 928 2378 1081 2264 
Q 1234 2150 1697 2047 
L 1894 2003 
Q 2506 1872 2764 1633 
Q 3022 1394 3022 966 
Q 3022 478 2636 193 
Q 2250 -91 1575 -91 
Q 1294 -91 989 -36 
Q 684 19 347 128 
L 347 722 
Q 666 556 975 473 
Q 1284 391 1588 391 
Q 1994 391 2212 530 
Q 2431 669 2431 922 
Q 2431 1156 2273 1281 
Q 2116 1406 1581 1522 
L 1381 1569 
Q 847 1681 609 1914 
Q 372 2147 372 2553 
Q 372 3047 722 3315 
Q 1072 3584 1716 3584 
Q 2034 3584 2315 3537 
Q 2597 3491 2834 3397 
z
" transform="scale(0.015625)"/>
        <path id="DejaVuSans-69" d="M 603 3500 
L 1178 3500 
L 1178 0 
L 603 0 
L 603 3500 
z
M 603 4863 
L 1178 4863 
L 1178 4134 
L 603 4134 
L 603 4863 
z
" transform="scale(0.015625)"/>
        <path id="DejaVuSans-61" d="M 2194 1759 
Q 1497 1759 1228 1600 
Q 959 1441 959 1056 
Q 959 750 1161 570 
Q 1363 391 1709 391 
Q 2188 391 2477 730 
Q 2766 1069 2766 1631 
L 2766 1759 
L 2194 1759 
z
M 3341 1997 
L 3341 0 
L 2766 0 
L 2766 531 
Q 2569 213 2275 61 
Q 1981 -91 1556 -91 
Q 1019 -91 701 211 
Q 384 513 384 1019 
Q 384 1609 779 1909 
Q 1175 2209 1959 2209 
L 2766 2209 
L 2766 2266 
Q 2766 2663 2505 2880 
Q 2244 3097 1772 3097 
Q 1472 3097 1187 3025 
Q 903 2953 641 2809 
L 641 3341 
Q 956 3463 1253 3523 
Q 1550 3584 1831 3584 
Q 2591 3584 2966 3190 
Q 3341 2797 3341 1997 
z
" transform="scale(0.015625)"/>
       </defs>
       <use xlink:href="#DejaVuSans-41"/>
       <use xlink:href="#DejaVuSans-73" transform="translate(68.408203 0)"/>
       <use xlink:href="#DejaVuSans-69" transform="translate(120.507812 0)"/>
       <use xlink:href="#DejaVuSans-61" transform="translate(148.291016 0)"/>
      </g>
     </g>
    </g>
    <g id="xtick_2">
     <g id="line2d_2">
      <g>
       <use xlink:href="#m81f591ab00" x="257.4" y="384.48" style="stroke: #000000; stroke-width: 0.8"/>
      </g>
     </g>
     <g id="text_2">
      <!-- Europe -->
      <g transform="translate(232.78625 402.117813) scale(0.14 -0.14)">
       <defs>
        <path id="DejaVuSans-45" d="M 628 4666 
L 3578 4666 
L 3578 4134 
L 1259 4134 
L 1259 2753 
L 3481 2753 
L 3481 2222 
L 1259 2222 
L 1259 531 
L 3634 531 
L 3634 0 
L 628 0 
L 628 4666 
z
" transform="scale(0.015625)"/>
        <path id="DejaVuSans-75" d="M 544 1381 
L 544 3500 
L 1119 3500 
L 1119 1403 
Q 1119 906 1312 657 
Q 1506 409 1894 409 
Q 2359 409 2629 706 
Q 2900 1003 2900 1516 
L 2900 3500 
L 3475 3500 
L 3475 0 
L 2900 0 
L 2900 538 
Q 2691 219 2414 64 
Q 2138 -91 1772 -91 
Q 1169 -91 856 284 
Q 544 659 544 1381 
z
M 1991 3584 
L 1991 3584 
z
" transform="scale(0.015625)"/>
        <path id="DejaVuSans-72" d="M 2631 2963 
Q 2534 3019 2420 3045 
Q 2306 3072 2169 3072 
Q 1681 3072 1420 2755 
Q 1159 2438 1159 1844 
L 1159 0 
L 581 0 
L 581 3500 
L 1159 3500 
L 1159 2956 
Q 1341 3275 1631 3429 
Q 1922 3584 2338 3584 
Q 2397 3584 2469 3576 
Q 2541 3569 2628 3553 
L 2631 2963 
z
" transform="scale(0.015625)"/>
        <path id="DejaVuSans-6f" d="M 1959 3097 
Q 1497 3097 1228 2736 
Q 959 2375 959 1747 
Q 959 1119 1226 758 
Q 1494 397 1959 397 
Q 2419 397 2687 759 
Q 2956 1122 2956 1747 
Q 2956 2369 2687 2733 
Q 2419 3097 1959 3097 
z
M 1959 3584 
Q 2709 3584 3137 3096 
Q 3566 2609 3566 1747 
Q 3566 888 3137 398 
Q 2709 -91 1959 -91 
Q 1206 -91 779 398 
Q 353 888 353 1747 
Q 353 2609 779 3096 
Q 1206 3584 1959 3584 
z
" transform="scale(0.015625)"/>
        <path id="DejaVuSans-70" d="M 1159 525 
L 1159 -1331 
L 581 -1331 
L 581 3500 
L 1159 3500 
L 1159 2969 
Q 1341 3281 1617 3432 
Q 1894 3584 2278 3584 
Q 2916 3584 3314 3078 
Q 3713 2572 3713 1747 
Q 3713 922 3314 415 
Q 2916 -91 2278 -91 
Q 1894 -91 1617 61 
Q 1341 213 1159 525 
z
M 3116 1747 
Q 3116 2381 2855 2742 
Q 2594 3103 2138 3103 
Q 1681 3103 1420 2742 
Q 1159 2381 1159 1747 
Q 1159 1113 1420 752 
Q 1681 391 2138 391 
Q 2594 391 2855 752 
Q 3116 1113 3116 1747 
z
" transform="scale(0.015625)"/>
        <path id="DejaVuSans-65" d="M 3597 1894 
L 3597 1613 
L 953 1613 
Q 991 1019 1311 708 
Q 1631 397 2203 397 
Q 2534 397 2845 478 
Q 3156 559 3463 722 
L 3463 178 
Q 3153 47 2828 -22 
Q 2503 -91 2169 -91 
Q 1331 -91 842 396 
Q 353 884 353 1716 
Q 353 2575 817 3079 
Q 1281 3584 2069 3584 
Q 2775 3584 3186 3129 
Q 3597 2675 3597 1894 
z
M 3022 2063 
Q 3016 2534 2758 2815 
Q 2500 3097 2075 3097 
Q 1594 3097 1305 2825 
Q 1016 2553 972 2059 
L 3022 2063 
z
" transform="scale(0.015625)"/>
       </defs>
       <use xlink:href="#DejaVuSans-45"/>
       <use xlink:href="#DejaVuSans-75" transform="translate(63.183594 0)"/>
       <use xlink:href="#DejaVuSans-72" transform="translate(126.5625 0)"/>
       <use xlink:href="#DejaVuSans-6f" transform="translate(165.425781 0)"/>
       <use xlink:href="#DejaVuSans-70" transform="translate(226.607422 0)"/>
       <use xlink:href="#DejaVuSans-65" transform="translate(290.083984 0)"/>
      </g>
     </g>
    </g>
    <g id="xtick_3">
     <g id="line2d_3">
      <g>
       <use xlink:href="#m81f591ab00" x="369" y="384.48" style="stroke: #000000; stroke-width: 0.8"/>
      </g>
     </g>
     <g id="text_3">
      <!-- Africa -->
      <g transform="translate(349.040156 402.117813) scale(0.14 -0.14)">
       <defs>
        <path id="DejaVuSans-66" d="M 2375 4863 
L 2375 4384 
L 1825 4384 
Q 1516 4384 1395 4259 
Q 1275 4134 1275 3809 
L 1275 3500 
L 2222 3500 
L 2222 3053 
L 1275 3053 
L 1275 0 
L 697 0 
L 697 3053 
L 147 3053 
L 147 3500 
L 697 3500 
L 697 3744 
Q 697 4328 969 4595 
Q 1241 4863 1831 4863 
L 2375 4863 
z
" transform="scale(0.015625)"/>
        <path id="DejaVuSans-63" d="M 3122 3366 
L 3122 2828 
Q 2878 2963 2633 3030 
Q 2388 3097 2138 3097 
Q 1578 3097 1268 2742 
Q 959 2388 959 1747 
Q 959 1106 1268 751 
Q 1578 397 2138 397 
Q 2388 397 2633 464 
Q 2878 531 3122 666 
L 3122 134 
Q 2881 22 2623 -34 
Q 2366 -91 2075 -91 
Q 1284 -91 818 406 
Q 353 903 353 1747 
Q 353 2603 823 3093 
Q 1294 3584 2113 3584 
Q 2378 3584 2631 3529 
Q 2884 3475 3122 3366 
z
" transform="scale(0.015625)"/>
       </defs>
       <use xlink:href="#DejaVuSans-41"/>
       <use xlink:href="#DejaVuSans-66" transform="translate(64.783203 0)"/>
       <use xlink:href="#DejaVuSans-72" transform="translate(99.988281 0)"/>
       <use xlink:href="#DejaVuSans-69" transform="translate(141.101562 0)"/>
       <use xlink:href="#DejaVuSans-63" transform="translate(168.884766 0)"/>
       <use xlink:href="#DejaVuSans-61" transform="translate(223.865234 0)"/>
      </g>
     </g>
    </g>
    <g id="xtick_4">
     <g id="line2d_4">
      <g>
       <use xlink:href="#m81f591ab00" x="480.6" y="384.48" style="stroke: #000000; stroke-width: 0.8"/>
      </g>
     </g>
     <g id="text_4">
      <!-- Americas -->
      <g transform="translate(448.078438 402.117813) scale(0.14 -0.14)">
       <defs>
        <path id="DejaVuSans-6d" d="M 3328 2828 
Q 3544 3216 3844 3400 
Q 4144 3584 4550 3584 
Q 5097 3584 5394 3201 
Q 5691 2819 5691 2113 
L 5691 0 
L 5113 0 
L 5113 2094 
Q 5113 2597 4934 2840 
Q 4756 3084 4391 3084 
Q 3944 3084 3684 2787 
Q 3425 2491 3425 1978 
L 3425 0 
L 2847 0 
L 2847 2094 
Q 2847 2600 2669 2842 
Q 2491 3084 2119 3084 
Q 1678 3084 1418 2786 
Q 1159 2488 1159 1978 
L 1159 0 
L 581 0 
L 581 3500 
L 1159 3500 
L 1159 2956 
Q 1356 3278 1631 3431 
Q 1906 3584 2284 3584 
Q 2666 3584 2933 3390 
Q 3200 3197 3328 2828 
z
" transform="scale(0.015625)"/>
       </defs>
       <use xlink:href="#DejaVuSans-41"/>
       <use xlink:href="#DejaVuSans-6d" transform="translate(68.408203 0)"/>
       <use xlink:href="#DejaVuSans-65" transform="translate(165.820312 0)"/>
       <use xlink:href="#DejaVuSans-72" transform="translate(227.34375 0)"/>
       <use xlink:href="#DejaVuSans-69" transform="translate(268.457031 0)"/>
       <use xlink:href="#DejaVuSans-63" transform="translate(296.240234 0)"/>
       <use xlink:href="#DejaVuSans-61" transform="translate(351.220703 0)"/>
       <use xlink:href="#DejaVuSans-73" transform="translate(412.5 0)"/>
      </g>
     </g>
    </g>
    <g id="xtick_5">
     <g id="line2d_5">
      <g>
       <use xlink:href="#m81f591ab00" x="592.2" y="384.48" style="stroke: #000000; stroke-width: 0.8"/>
      </g>
     </g>
     <g id="text_5">
      <!-- Oceania -->
      <g transform="translate(563.573281 402.117813) scale(0.14 -0.14)">
       <defs>
        <path id="DejaVuSans-4f" d="M 2522 4238 
Q 1834 4238 1429 3725 
Q 1025 3213 1025 2328 
Q 1025 1447 1429 934 
Q 1834 422 2522 422 
Q 3209 422 3611 934 
Q 4013 1447 4013 2328 
Q 4013 3213 3611 3725 
Q 3209 4238 2522 4238 
z
M 2522 4750 
Q 3503 4750 4090 4092 
Q 4678 3434 4678 2328 
Q 4678 1225 4090 567 
Q 3503 -91 2522 -91 
Q 1538 -91 948 565 
Q 359 1222 359 2328 
Q 359 3434 948 4092 
Q 1538 4750 2522 4750 
z
" transform="scale(0.015625)"/>
        <path id="DejaVuSans-6e" d="M 3513 2113 
L 3513 0 
L 2938 0 
L 2938 2094 
Q 2938 2591 2744 2837 
Q 2550 3084 2163 3084 
Q 1697 3084 1428 2787 
Q 1159 2491 1159 1978 
L 1159 0 
L 581 0 
L 581 3500 
L 1159 3500 
L 1159 2956 
Q 1366 3272 1645 3428 
Q 1925 3584 2291 3584 
Q 2894 3584 3203 3211 
Q 3513 2838 3513 2113 
z
" transform="scale(0.015625)"/>
       </defs>
       <use xlink:href="#DejaVuSans-4f"/>
       <use xlink:href="#DejaVuSans-63" transform="translate(78.710938 0)"/>
       <use xlink:href="#DejaVuSans-65" transform="translate(133.691406 0)"/>
       <use xlink:href="#DejaVuSans-61" transform="translate(195.214844 0)"/>
       <use xlink:href="#DejaVuSans-6e" transform="translate(256.494141 0)"/>
       <use xlink:href="#DejaVuSans-69" transform="translate(319.873047 0)"/>
       <use xlink:href="#DejaVuSans-61" transform="translate(347.65625 0)"/>
      </g>
     </g>
    </g>
    <g id="text_6">
     <!-- Continent -->
     <g transform="translate(325.002656 422.706563) scale(0.18 -0.18)">
      <defs>
       <path id="DejaVuSans-43" d="M 4122 4306 
L 4122 3641 
Q 3803 3938 3442 4084 
Q 3081 4231 2675 4231 
Q 1875 4231 1450 3742 
Q 1025 3253 1025 2328 
Q 1025 1406 1450 917 
Q 1875 428 2675 428 
Q 3081 428 3442 575 
Q 3803 722 4122 1019 
L 4122 359 
Q 3791 134 3420 21 
Q 3050 -91 2638 -91 
Q 1578 -91 968 557 
Q 359 1206 359 2328 
Q 359 3453 968 4101 
Q 1578 4750 2638 4750 
Q 3056 4750 3426 4639 
Q 3797 4528 4122 4306 
z
" transform="scale(0.015625)"/>
       <path id="DejaVuSans-74" d="M 1172 4494 
L 1172 3500 
L 2356 3500 
L 2356 3053 
L 1172 3053 
L 1172 1153 
Q 1172 725 1289 603 
Q 1406 481 1766 481 
L 2356 481 
L 2356 0 
L 1766 0 
Q 1100 0 847 248 
Q 594 497 594 1153 
L 594 3053 
L 172 3053 
L 172 3500 
L 594 3500 
L 594 4494 
L 1172 4494 
z
" transform="scale(0.015625)"/>
      </defs>
      <use xlink:href="#DejaVuSans-43"/>
      <use xlink:href="#DejaVuSans-6f" transform="translate(69.824219 0)"/>
      <use xlink:href="#DejaVuSans-6e" transform="translate(131.005859 0)"/>
      <use xlink:href="#DejaVuSans-74" transform="translate(194.384766 0)"/>
      <use xlink:href="#DejaVuSans-69" transform="translate(233.59375 0)"/>
      <use xlink:href="#DejaVuSans-6e" transform="translate(261.376953 0)"/>
      <use xlink:href="#DejaVuSans-65" transform="translate(324.755859 0)"/>
      <use xlink:href="#DejaVuSans-6e" transform="translate(386.279297 0)"/>
      <use xlink:href="#DejaVuSans-74" transform="translate(449.658203 0)"/>
     </g>
    </g>
   </g>
   <g id="matplotlib.axis_2">
    <g id="ytick_1">
     <g id="line2d_6">
      <defs>
       <path id="mb3a7bedd6d" d="M 0 0 
L -3.5 0 
" style="stroke: #000000; stroke-width: 0.8"/>
      </defs>
      <g>
       <use xlink:href="#mb3a7bedd6d" x="90" y="363.193298" style="stroke: #000000; stroke-width: 0.8"/>
      </g>
     </g>
     <g id="text_7">
      <!-- 20 -->
      <g transform="translate(65.185 368.512204) scale(0.14 -0.14)">
       <defs>
        <path id="DejaVuSans-32" d="M 1228 531 
L 3431 531 
L 3431 0 
L 469 0 
L 469 531 
Q 828 903 1448 1529 
Q 2069 2156 2228 2338 
Q 2531 2678 2651 2914 
Q 2772 3150 2772 3378 
Q 2772 3750 2511 3984 
Q 2250 4219 1831 4219 
Q 1534 4219 1204 4116 
Q 875 4013 500 3803 
L 500 4441 
Q 881 4594 1212 4672 
Q 1544 4750 1819 4750 
Q 2544 4750 2975 4387 
Q 3406 4025 3406 3419 
Q 3406 3131 3298 2873 
Q 3191 2616 2906 2266 
Q 2828 2175 2409 1742 
Q 1991 1309 1228 531 
z
" transform="scale(0.015625)"/>
        <path id="DejaVuSans-30" d="M 2034 4250 
Q 1547 4250 1301 3770 
Q 1056 3291 1056 2328 
Q 1056 1369 1301 889 
Q 1547 409 2034 409 
Q 2525 409 2770 889 
Q 3016 1369 3016 2328 
Q 3016 3291 2770 3770 
Q 2525 4250 2034 4250 
z
M 2034 4750 
Q 2819 4750 3233 4129 
Q 3647 3509 3647 2328 
Q 3647 1150 3233 529 
Q 2819 -91 2034 -91 
Q 1250 -91 836 529 
Q 422 1150 422 2328 
Q 422 3509 836 4129 
Q 1250 4750 2034 4750 
z
" transform="scale(0.015625)"/>
       </defs>
       <use xlink:href="#DejaVuSans-32"/>
       <use xlink:href="#DejaVuSans-30" transform="translate(63.623047 0)"/>
      </g>
     </g>
    </g>
    <g id="ytick_2">
     <g id="line2d_7">
      <g>
       <use xlink:href="#mb3a7bedd6d" x="90" y="320.738809" style="stroke: #000000; stroke-width: 0.8"/>
      </g>
     </g>
     <g id="text_8">
      <!-- 30 -->
      <g transform="translate(65.185 326.057715) scale(0.14 -0.14)">
       <defs>
        <path id="DejaVuSans-33" d="M 2597 2516 
Q 3050 2419 3304 2112 
Q 3559 1806 3559 1356 
Q 3559 666 3084 287 
Q 2609 -91 1734 -91 
Q 1441 -91 1130 -33 
Q 819 25 488 141 
L 488 750 
Q 750 597 1062 519 
Q 1375 441 1716 441 
Q 2309 441 2620 675 
Q 2931 909 2931 1356 
Q 2931 1769 2642 2001 
Q 2353 2234 1838 2234 
L 1294 2234 
L 1294 2753 
L 1863 2753 
Q 2328 2753 2575 2939 
Q 2822 3125 2822 3475 
Q 2822 3834 2567 4026 
Q 2313 4219 1838 4219 
Q 1578 4219 1281 4162 
Q 984 4106 628 3988 
L 628 4550 
Q 988 4650 1302 4700 
Q 1616 4750 1894 4750 
Q 2613 4750 3031 4423 
Q 3450 4097 3450 3541 
Q 3450 3153 3228 2886 
Q 3006 2619 2597 2516 
z
" transform="scale(0.015625)"/>
       </defs>
       <use xlink:href="#DejaVuSans-33"/>
       <use xlink:href="#DejaVuSans-30" transform="translate(63.623047 0)"/>
      </g>
     </g>
    </g>
    <g id="ytick_3">
     <g id="line2d_8">
      <g>
       <use xlink:href="#mb3a7bedd6d" x="90" y="278.28432" style="stroke: #000000; stroke-width: 0.8"/>
      </g>
     </g>
     <g id="text_9">
      <!-- 40 -->
      <g transform="translate(65.185 283.603226) scale(0.14 -0.14)">
       <defs>
        <path id="DejaVuSans-34" d="M 2419 4116 
L 825 1625 
L 2419 1625 
L 2419 4116 
z
M 2253 4666 
L 3047 4666 
L 3047 1625 
L 3713 1625 
L 3713 1100 
L 3047 1100 
L 3047 0 
L 2419 0 
L 2419 1100 
L 313 1100 
L 313 1709 
L 2253 4666 
z
" transform="scale(0.015625)"/>
       </defs>
       <use xlink:href="#DejaVuSans-34"/>
       <use xlink:href="#DejaVuSans-30" transform="translate(63.623047 0)"/>
      </g>
     </g>
    </g>
    <g id="ytick_4">
     <g id="line2d_9">
      <g>
       <use xlink:href="#mb3a7bedd6d" x="90" y="235.829831" style="stroke: #000000; stroke-width: 0.8"/>
      </g>
     </g>
     <g id="text_10">
      <!-- 50 -->
      <g transform="translate(65.185 241.148737) scale(0.14 -0.14)">
       <defs>
        <path id="DejaVuSans-35" d="M 691 4666 
L 3169 4666 
L 3169 4134 
L 1269 4134 
L 1269 2991 
Q 1406 3038 1543 3061 
Q 1681 3084 1819 3084 
Q 2600 3084 3056 2656 
Q 3513 2228 3513 1497 
Q 3513 744 3044 326 
Q 2575 -91 1722 -91 
Q 1428 -91 1123 -41 
Q 819 9 494 109 
L 494 744 
Q 775 591 1075 516 
Q 1375 441 1709 441 
Q 2250 441 2565 725 
Q 2881 1009 2881 1497 
Q 2881 1984 2565 2268 
Q 2250 2553 1709 2553 
Q 1456 2553 1204 2497 
Q 953 2441 691 2322 
L 691 4666 
z
" transform="scale(0.015625)"/>
       </defs>
       <use xlink:href="#DejaVuSans-35"/>
       <use xlink:href="#DejaVuSans-30" transform="translate(63.623047 0)"/>
      </g>
     </g>
    </g>
    <g id="ytick_5">
     <g id="line2d_10">
      <g>
       <use xlink:href="#mb3a7bedd6d" x="90" y="193.375342" style="stroke: #000000; stroke-width: 0.8"/>
      </g>
     </g>
     <g id="text_11">
      <!-- 60 -->
      <g transform="translate(65.185 198.694248) scale(0.14 -0.14)">
       <defs>
        <path id="DejaVuSans-36" d="M 2113 2584 
Q 1688 2584 1439 2293 
Q 1191 2003 1191 1497 
Q 1191 994 1439 701 
Q 1688 409 2113 409 
Q 2538 409 2786 701 
Q 3034 994 3034 1497 
Q 3034 2003 2786 2293 
Q 2538 2584 2113 2584 
z
M 3366 4563 
L 3366 3988 
Q 3128 4100 2886 4159 
Q 2644 4219 2406 4219 
Q 1781 4219 1451 3797 
Q 1122 3375 1075 2522 
Q 1259 2794 1537 2939 
Q 1816 3084 2150 3084 
Q 2853 3084 3261 2657 
Q 3669 2231 3669 1497 
Q 3669 778 3244 343 
Q 2819 -91 2113 -91 
Q 1303 -91 875 529 
Q 447 1150 447 2328 
Q 447 3434 972 4092 
Q 1497 4750 2381 4750 
Q 2619 4750 2861 4703 
Q 3103 4656 3366 4563 
z
" transform="scale(0.015625)"/>
       </defs>
       <use xlink:href="#DejaVuSans-36"/>
       <use xlink:href="#DejaVuSans-30" transform="translate(63.623047 0)"/>
      </g>
     </g>
    </g>
    <g id="ytick_6">
     <g id="line2d_11">
      <g>
       <use xlink:href="#mb3a7bedd6d" x="90" y="150.920853" style="stroke: #000000; stroke-width: 0.8"/>
      </g>
     </g>
     <g id="text_12">
      <!-- 70 -->
      <g transform="translate(65.185 156.239759) scale(0.14 -0.14)">
       <defs>
        <path id="DejaVuSans-37" d="M 525 4666 
L 3525 4666 
L 3525 4397 
L 1831 0 
L 1172 0 
L 2766 4134 
L 525 4134 
L 525 4666 
z
" transform="scale(0.015625)"/>
       </defs>
       <use xlink:href="#DejaVuSans-37"/>
       <use xlink:href="#DejaVuSans-30" transform="translate(63.623047 0)"/>
      </g>
     </g>
    </g>
    <g id="ytick_7">
     <g id="line2d_12">
      <g>
       <use xlink:href="#mb3a7bedd6d" x="90" y="108.466364" style="stroke: #000000; stroke-width: 0.8"/>
      </g>
     </g>
     <g id="text_13">
      <!-- 80 -->
      <g transform="translate(65.185 113.78527) scale(0.14 -0.14)">
       <defs>
        <path id="DejaVuSans-38" d="M 2034 2216 
Q 1584 2216 1326 1975 
Q 1069 1734 1069 1313 
Q 1069 891 1326 650 
Q 1584 409 2034 409 
Q 2484 409 2743 651 
Q 3003 894 3003 1313 
Q 3003 1734 2745 1975 
Q 2488 2216 2034 2216 
z
M 1403 2484 
Q 997 2584 770 2862 
Q 544 3141 544 3541 
Q 544 4100 942 4425 
Q 1341 4750 2034 4750 
Q 2731 4750 3128 4425 
Q 3525 4100 3525 3541 
Q 3525 3141 3298 2862 
Q 3072 2584 2669 2484 
Q 3125 2378 3379 2068 
Q 3634 1759 3634 1313 
Q 3634 634 3220 271 
Q 2806 -91 2034 -91 
Q 1263 -91 848 271 
Q 434 634 434 1313 
Q 434 1759 690 2068 
Q 947 2378 1403 2484 
z
M 1172 3481 
Q 1172 3119 1398 2916 
Q 1625 2713 2034 2713 
Q 2441 2713 2670 2916 
Q 2900 3119 2900 3481 
Q 2900 3844 2670 4047 
Q 2441 4250 2034 4250 
Q 1625 4250 1398 4047 
Q 1172 3844 1172 3481 
z
" transform="scale(0.015625)"/>
       </defs>
       <use xlink:href="#DejaVuSans-38"/>
       <use xlink:href="#DejaVuSans-30" transform="translate(63.623047 0)"/>
      </g>
     </g>
    </g>
    <g id="ytick_8">
     <g id="line2d_13">
      <g>
       <use xlink:href="#mb3a7bedd6d" x="90" y="66.011875" style="stroke: #000000; stroke-width: 0.8"/>
      </g>
     </g>
     <g id="text_14">
      <!-- 90 -->
      <g transform="translate(65.185 71.330781) scale(0.14 -0.14)">
       <defs>
        <path id="DejaVuSans-39" d="M 703 97 
L 703 672 
Q 941 559 1184 500 
Q 1428 441 1663 441 
Q 2288 441 2617 861 
Q 2947 1281 2994 2138 
Q 2813 1869 2534 1725 
Q 2256 1581 1919 1581 
Q 1219 1581 811 2004 
Q 403 2428 403 3163 
Q 403 3881 828 4315 
Q 1253 4750 1959 4750 
Q 2769 4750 3195 4129 
Q 3622 3509 3622 2328 
Q 3622 1225 3098 567 
Q 2575 -91 1691 -91 
Q 1453 -91 1209 -44 
Q 966 3 703 97 
z
M 1959 2075 
Q 2384 2075 2632 2365 
Q 2881 2656 2881 3163 
Q 2881 3666 2632 3958 
Q 2384 4250 1959 4250 
Q 1534 4250 1286 3958 
Q 1038 3666 1038 3163 
Q 1038 2656 1286 2365 
Q 1534 2075 1959 2075 
z
" transform="scale(0.015625)"/>
       </defs>
       <use xlink:href="#DejaVuSans-39"/>
       <use xlink:href="#DejaVuSans-30" transform="translate(63.623047 0)"/>
      </g>
     </g>
    </g>
    <g id="text_15">
     <!-- Life Expectancy -->
     <g transform="translate(57.441563 289.477969) rotate(-90) scale(0.18 -0.18)">
      <defs>
       <path id="DejaVuSans-4c" d="M 628 4666 
L 1259 4666 
L 1259 531 
L 3531 531 
L 3531 0 
L 628 0 
L 628 4666 
z
" transform="scale(0.015625)"/>
       <path id="DejaVuSans-20" transform="scale(0.015625)"/>
       <path id="DejaVuSans-78" d="M 3513 3500 
L 2247 1797 
L 3578 0 
L 2900 0 
L 1881 1375 
L 863 0 
L 184 0 
L 1544 1831 
L 300 3500 
L 978 3500 
L 1906 2253 
L 2834 3500 
L 3513 3500 
z
" transform="scale(0.015625)"/>
       <path id="DejaVuSans-79" d="M 2059 -325 
Q 1816 -950 1584 -1140 
Q 1353 -1331 966 -1331 
L 506 -1331 
L 506 -850 
L 844 -850 
Q 1081 -850 1212 -737 
Q 1344 -625 1503 -206 
L 1606 56 
L 191 3500 
L 800 3500 
L 1894 763 
L 2988 3500 
L 3597 3500 
L 2059 -325 
z
" transform="scale(0.015625)"/>
      </defs>
      <use xlink:href="#DejaVuSans-4c"/>
      <use xlink:href="#DejaVuSans-69" transform="translate(55.712891 0)"/>
      <use xlink:href="#DejaVuSans-66" transform="translate(83.496094 0)"/>
      <use xlink:href="#DejaVuSans-65" transform="translate(118.701172 0)"/>
      <use xlink:href="#DejaVuSans-20" transform="translate(180.224609 0)"/>
      <use xlink:href="#DejaVuSans-45" transform="translate(212.011719 0)"/>
      <use xlink:href="#DejaVuSans-78" transform="translate(275.195312 0)"/>
      <use xlink:href="#DejaVuSans-70" transform="translate(334.375 0)"/>
      <use xlink:href="#DejaVuSans-65" transform="translate(397.851562 0)"/>
      <use xlink:href="#DejaVuSans-63" transform="translate(459.375 0)"/>
      <use xlink:href="#DejaVuSans-74" transform="translate(514.355469 0)"/>
      <use xlink:href="#DejaVuSans-61" transform="translate(553.564453 0)"/>
      <use xlink:href="#DejaVuSans-6e" transform="translate(614.84375 0)"/>
      <use xlink:href="#DejaVuSans-63" transform="translate(678.222656 0)"/>
      <use xlink:href="#DejaVuSans-79" transform="translate(733.203125 0)"/>
     </g>
    </g>
   </g>
   <g id="line2d_14">
    <path d="M 145.8 325.829102 
L 145.8 97.415461 
" clip-path="url(#p71130bd76b)" style="fill: none; stroke: #545454; stroke-width: 1.875; stroke-linecap: square"/>
   </g>
   <g id="line2d_15">
    <path d="M 145.8 229.77476 
L 145.8 153.021289 
" clip-path="url(#p71130bd76b)" style="fill: none; stroke: #545454; stroke-width: 5.625; stroke-linecap: square"/>
   </g>
   <g id="line2d_16">
    <path d="M 145.8 185.76962 
" clip-path="url(#p71130bd76b)" style="fill: none; stroke: #545454; stroke-width: 1.5; stroke-linecap: square"/>
    <defs>
     <path id="m66f33877cc" d="M 2.34375 0 
L -2.34375 -0 
" style="stroke: #ffffff; stroke-width: 1.125"/>
    </defs>
    <g clip-path="url(#p71130bd76b)">
     <use xlink:href="#m66f33877cc" x="145.8" y="185.76962" style="fill: #ffffff; stroke: #ffffff; stroke-width: 1.125"/>
    </g>
   </g>
   <g id="line2d_17">
    <path d="M 257.4 188.977057 
L 257.4 101.00711 
" clip-path="url(#p71130bd76b)" style="fill: none; stroke: #545454; stroke-width: 1.875; stroke-linecap: square"/>
   </g>
   <g id="line2d_18">
    <path d="M 257.4 152.746396 
L 257.4 127.781034 
" clip-path="url(#p71130bd76b)" style="fill: none; stroke: #545454; stroke-width: 5.625; stroke-linecap: square"/>
   </g>
   <g id="line2d_19">
    <path d="M 257.4 141.406802 
" clip-path="url(#p71130bd76b)" style="fill: none; stroke: #545454; stroke-width: 1.5; stroke-linecap: square"/>
    <g clip-path="url(#p71130bd76b)">
     <use xlink:href="#m66f33877cc" x="257.4" y="141.406802" style="fill: #ffffff; stroke: #ffffff; stroke-width: 1.125"/>
    </g>
   </g>
   <g id="line2d_20">
    <path d="M 369 320.738809 
L 369 141.152075 
" clip-path="url(#p71130bd76b)" style="fill: none; stroke: #545454; stroke-width: 1.875; stroke-linecap: square"/>
   </g>
   <g id="line2d_21">
    <path d="M 369 268.211993 
L 369 217.101033 
" clip-path="url(#p71130bd76b)" style="fill: none; stroke: #545454; stroke-width: 5.625; stroke-linecap: square"/>
   </g>
   <g id="line2d_22">
    <path d="M 369 245.203782 
" clip-path="url(#p71130bd76b)" style="fill: none; stroke: #545454; stroke-width: 1.5; stroke-linecap: square"/>
    <g clip-path="url(#p71130bd76b)">
     <use xlink:href="#m66f33877cc" x="369" y="245.203782" style="fill: #ffffff; stroke: #ffffff; stroke-width: 1.125"/>
    </g>
   </g>
   <g id="line2d_23">
    <path d="M 480.6 276.526704 
L 480.6 105.694086 
" clip-path="url(#p71130bd76b)" style="fill: none; stroke: #545454; stroke-width: 1.875; stroke-linecap: square"/>
   </g>
   <g id="line2d_24">
    <path d="M 480.6 200.125606 
L 480.6 143.705713 
" clip-path="url(#p71130bd76b)" style="fill: none; stroke: #545454; stroke-width: 5.625; stroke-linecap: square"/>
   </g>
   <g id="line2d_25">
    <path d="M 480.6 163.453418 
" clip-path="url(#p71130bd76b)" style="fill: none; stroke: #545454; stroke-width: 1.5; stroke-linecap: square"/>
    <g clip-path="url(#p71130bd76b)">
     <use xlink:href="#m66f33877cc" x="480.6" y="163.453418" style="fill: #ffffff; stroke: #ffffff; stroke-width: 1.125"/>
    </g>
   </g>
   <g id="line2d_26">
    <path d="M 592.2 154.656848 
L 592.2 103.223235 
" clip-path="url(#p71130bd76b)" style="fill: none; stroke: #545454; stroke-width: 1.875; stroke-linecap: square"/>
   </g>
   <g id="line2d_27">
    <path d="M 592.2 145.805087 
L 592.2 118.8571 
" clip-path="url(#p71130bd76b)" style="fill: none; stroke: #545454; stroke-width: 5.625; stroke-linecap: square"/>
   </g>
   <g id="line2d_28">
    <path d="M 592.2 135.361283 
" clip-path="url(#p71130bd76b)" style="fill: none; stroke: #545454; stroke-width: 1.5; stroke-linecap: square"/>
    <g clip-path="url(#p71130bd76b)">
     <use xlink:href="#m66f33877cc" x="592.2" y="135.361283" style="fill: #ffffff; stroke: #ffffff; stroke-width: 1.125"/>
    </g>
   </g>
   <g id="patch_3">
    <path d="M 90 384.48 
L 90 51.84 
" style="fill: none; stroke: #000000; stroke-width: 0.8; stroke-linejoin: miter; stroke-linecap: square"/>
   </g>
   <g id="patch_4">
    <path d="M 648 384.48 
L 648 51.84 
" style="fill: none; stroke: #000000; stroke-width: 0.8; stroke-linejoin: miter; stroke-linecap: square"/>
   </g>
   <g id="patch_5">
    <path d="M 90 384.48 
L 648 384.48 
" style="fill: none; stroke: #000000; stroke-width: 0.8; stroke-linejoin: miter; stroke-linecap: square"/>
   </g>
   <g id="patch_6">
    <path d="M 90 51.84 
L 648 51.84 
" style="fill: none; stroke: #000000; stroke-width: 0.8; stroke-linejoin: miter; stroke-linecap: square"/>
   </g>
  </g>
 </g>
 <defs>
  <clipPath id="p71130bd76b">
   <rect x="90" y="51.84" width="558" height="332.64"/>
  </clipPath>
 </defs>
</svg>
